%FSTAX24Y24*%
%MOIN*%
%SFA1B1*%

%IPPOS*%
%ADD30C,0.019700*%
%ADD31C,0.023600*%
%ADD32C,0.059100*%
%ADD33C,0.015700*%
%ADD35C,0.039400*%
%ADD38C,0.003900*%
%ADD39O,0.055100X0.141700*%
%ADD40O,0.141700X0.055100*%
%ADD41C,0.023600*%
%ADD42C,0.027600*%
%ADD43C,0.059100*%
%ADD44R,0.059100X0.059100*%
%ADD45C,0.063000*%
%ADD46R,0.063000X0.063000*%
%ADD47O,0.039400X0.078700*%
%ADD48R,0.039400X0.078700*%
%ADD49C,0.047200*%
%ADD50C,0.078700*%
%ADD51R,0.141700X0.141700*%
%ADD52O,0.041300X0.078700*%
%ADD53R,0.041300X0.078700*%
%ADD54C,0.126000*%
%ADD55C,0.118100*%
%ADD56C,0.472400*%
%ADD57R,0.059100X0.059100*%
%ADD58C,0.031500*%
%ADD59C,0.050000*%
%ADD60C,0.196900*%
%LNdummyv1-1*%
%LPD*%
G36*
X018701Y011122D02*
X018504Y010925D01*
X017913*
X017717Y011122*
X017815Y011417*
X018602*
X018701Y011122*
G37*
G36*
X015246Y010416D02*
X015241Y010417D01*
X015234Y010416*
X015227Y010414*
X01522Y010411*
X015212Y010407*
X015203Y010401*
X015194Y010394*
X015174Y010377*
X015163Y010366*
X01508Y010506*
X015091Y010517*
X015134Y010565*
X015137Y01057*
X015139Y010574*
X01514Y010578*
X015246Y010416*
G37*
G36*
X013134Y010369D02*
X013139Y010366D01*
X013146Y010363*
X013154Y010361*
X013163Y010359*
X013173Y010357*
X013198Y010355*
X013227Y010354*
Y010197*
X013212*
X013173Y010194*
X013163Y010192*
X013154Y01019*
X013146Y010188*
X013139Y010186*
X013134Y010182*
X01313Y010179*
Y010372*
X013134Y010369*
G37*
G36*
X017815Y012108D02*
X017811Y012112D01*
X017806Y012115*
X017799Y012117*
X017791Y01212*
X017782Y012122*
X017772Y012123*
X017747Y012125*
X017718Y012126*
Y012283*
X017733Y012284*
X017772Y012286*
X017782Y012288*
X017791Y01229*
X017799Y012292*
X017806Y012295*
X017811Y012298*
X017815Y012301*
Y012108*
G37*
G36*
X030512Y012008D02*
X029823D01*
Y012697*
X03002Y012894*
X030512*
Y012008*
G37*
G36*
X017451Y011769D02*
X017446Y011771D01*
X017441*
X017435Y01177*
X017428Y011768*
X01742Y011764*
X017412Y011759*
X017403Y011752*
X017393Y011745*
X017372Y011725*
X017273Y011848*
X017396Y011949*
X017451Y011769*
G37*
G36*
X019469Y009236D02*
X019471Y009197D01*
X019473Y009187*
X019475Y009177*
X019477Y00917*
X01948Y009163*
X019483Y009158*
X019486Y009154*
X019293*
X019297Y009158*
X0193Y009163*
X019302Y00917*
X019305Y009177*
X019307Y009187*
X019308Y009197*
X01931Y009221*
X019311Y009251*
X019468*
X019469Y009236*
G37*
G36*
X013976Y007826D02*
X013965Y007815D01*
X013922Y007766*
X013919Y007761*
X013916Y007756*
X013915Y007753*
X013805Y007911*
X013811*
X013817*
X013824Y007913*
X013832Y007917*
X01384Y007921*
X013849Y007927*
X013858Y007934*
X013878Y007951*
X013889Y007962*
X013976Y007826*
G37*
G36*
X037133Y013838D02*
X037135Y01381D01*
X038858Y012087*
Y008583*
X037874Y007598*
X034724*
X033071Y009252*
Y01122*
X035Y01315*
X035038*
X03505Y01319*
X035097Y013394*
X035131Y01361*
X035151Y013838*
X035157Y014077*
X037126*
X037133Y013838*
G37*
G36*
X025197Y006693D02*
Y006496D01*
X025Y006299*
X024016*
X023917Y006398*
Y006496*
X024213Y006791*
X025098*
X025197Y006693*
G37*
G36*
X027972Y010512D02*
Y010039D01*
X027362Y009429*
Y008957*
X026811*
X026929Y009075*
Y010778*
X026998Y010886*
X027598*
X027972Y010512*
G37*
G36*
X013856Y008823D02*
X013845Y008812D01*
X013819Y008783*
X013813Y008774*
X013808Y008766*
X013804Y008759*
X013801Y008753*
X0138Y008747*
X013799Y008742*
X013663Y008878*
X013668*
X013674Y00888*
X013681Y008883*
X013688Y008887*
X013696Y008892*
X013704Y008898*
X013723Y008914*
X013744Y008934*
X013856Y008823*
G37*
G36*
X013974Y008272D02*
X013963Y008261D01*
X013937Y008232*
X013931Y008223*
X013926Y008215*
X013922Y008208*
X013919Y008202*
X013918Y008196*
X013917Y00819*
X013781Y008327*
X013786*
X013792Y008329*
X013799Y008332*
X013806Y008336*
X013814Y008341*
X013822Y008347*
X013841Y008363*
X013862Y008383*
X013974Y008272*
G37*
G36*
X039055Y014803D02*
Y01315D01*
X038189*
X037392Y013947*
Y015394*
X03747Y015472*
X038386*
X039055Y014803*
G37*
G36*
X037205Y017992D02*
X038819D01*
Y016378*
X03874Y016299*
X037638*
X03752Y016417*
X037205*
X035394Y018228*
Y018898*
X035551Y019055*
X03626*
X037205Y017992*
G37*
G36*
X035276Y018898D02*
Y018071D01*
X035945Y017402*
X034055Y016535*
X033819Y016772*
Y017795*
X034055Y018032*
X034213*
X034331Y01815*
Y018898*
X034488Y019055*
X035118*
X035276Y018898*
G37*
G36*
X03252Y019685D02*
D01*
Y014173*
X030641Y012295*
X030595Y012314*
Y01252*
X030593Y012532*
Y012894*
X030587Y012925*
X030569Y012951*
X030543Y012969*
X030512Y012975*
X03002*
X029988Y012969*
X029962Y012951*
X029765Y012755*
X029747Y012728*
X029741Y012697*
Y012101*
X0281Y01046*
X028054Y01048*
Y010512*
X028048Y010543*
X02803Y010569*
X027656Y010943*
X027649Y010948*
Y010956*
X027637*
X02763Y010961*
X027598Y010967*
X026998*
X026989Y010966*
X02698Y010965*
X026974Y010963*
X026967Y010961*
X026959Y010956*
X026898*
Y010881*
X02686Y010821*
X026858Y010815*
X026854Y010809*
X026852Y0108*
X026849Y010792*
Y010785*
X026848Y010778*
Y009208*
X024737Y007097*
X023988Y007846*
X02391Y007907*
X023818Y007944*
X02372Y007957*
X019743*
X018587Y009113*
Y010893*
X018758Y011064*
X018766Y011075*
X018774Y011086*
X018775Y011088*
X018776Y011091*
X018779Y011104*
X018782Y011116*
Y011119*
Y011122*
X01878Y011135*
X018778Y011148*
X018751Y011228*
X018794Y011255*
X019228Y010821*
Y009215*
X019227Y009207*
Y009203*
X019185Y00914*
X019168Y009055*
X019185Y00897*
X019233Y008898*
X019305Y00885*
X01939Y008833*
X019475Y00885*
X019547Y008898*
X019595Y00897*
X019612Y009055*
X019595Y00914*
X019553Y009203*
X019552Y009206*
Y009218*
Y010795*
X019598Y010814*
X020045Y010367*
X020053Y010326*
X020101Y010254*
X020173Y010206*
X020258Y010189*
X020343Y010206*
X020415Y010254*
X020463Y010326*
X02048Y010411*
X020463Y010496*
X02044Y010531*
Y011521*
X0209Y011982*
X020941Y01199*
X021013Y012038*
X021061Y01211*
X021078Y012195*
X021061Y01228*
X021043Y012307*
X02107Y012357*
X024044*
X024049Y012354*
X024134Y012337*
X024219Y012354*
X024291Y012402*
X024339Y012474*
X024356Y012559*
X024339Y012644*
X024291Y012716*
X024219Y012764*
X024134Y012781*
X024049Y012764*
X024044Y012761*
X019617*
X019613Y012764*
X019528Y012781*
X019443Y012764*
X019371Y012716*
X019322Y012644*
X019305Y012559*
X019322Y012474*
X019371Y012402*
X019443Y012354*
X019528Y012337*
X019613Y012354*
X019617Y012357*
X020643*
X020669Y012307*
X020651Y01228*
X020643Y012239*
X020129Y011725*
X02009Y011666*
X020076Y011596*
Y010916*
X02003Y010897*
X018239Y012688*
X01818Y012727*
X01811Y012741*
X014445*
X014409Y012795*
X014337Y012843*
X014252Y01286*
X014167Y012843*
X014095Y012795*
X014047Y012723*
X01403Y012638*
X014047Y012553*
X014095Y012481*
X014167Y012433*
X014212Y012424*
X014261Y012391*
X014331Y012377*
X017259*
X017274Y012327*
X017262Y012319*
X015535Y010591*
X015487Y010606*
X015481Y010636*
X015433Y010708*
X015361Y010756*
X015276Y010773*
X015191Y010756*
X015119Y010708*
X01507Y010636*
X015065Y010611*
X015048Y010592*
X014894Y010437*
X013192*
X013183Y010438*
X013179Y010439*
X013116Y010481*
X013031Y010498*
X012946Y010481*
X012874Y010433*
X012826Y010361*
X012809Y010276*
X012826Y010191*
X012874Y010119*
X012946Y01007*
X013031Y010054*
X013116Y01007*
X013179Y010112*
X013182Y010113*
X013195Y010114*
X014741*
X01476Y010068*
X01366Y008968*
X013654Y008962*
X013651Y00896*
X013576Y008945*
X013504Y008897*
X013456Y008825*
X013439Y00874*
X013456Y008655*
X013504Y008583*
X013576Y008535*
X013661Y008518*
X013746Y008535*
X013818Y008583*
X013828Y008598*
X013878Y008583*
Y008517*
X013778Y008417*
X013772Y008411*
X013769Y008409*
X013695Y008394*
X013623Y008346*
X013574Y008274*
X013557Y008189*
X013574Y008104*
X013623Y008032*
X013652Y008012*
Y007952*
X013623Y007933*
X013574Y007861*
X013557Y007776*
X013574Y007691*
X013623Y007619*
X013695Y00757*
X01378Y007554*
X013865Y00757*
X013937Y007619*
X013985Y007691*
X013991Y007721*
X01401Y007743*
X014412Y008145*
X014447Y008198*
X01446Y00826*
Y008581*
X01522Y009341*
X015409*
X015471Y009354*
X015523Y009389*
X017488Y011354*
X017618*
X017658Y011362*
X017697Y011322*
X017639Y011148*
X017638Y011135*
X017635Y011122*
X017636Y011119*
X017635Y011116*
X017639Y011104*
X017641Y011091*
X017643Y011088*
X017644Y011086*
X017652Y011075*
X017659Y011064*
X01783Y010893*
Y008957*
X017843Y008859*
X017859Y008821*
X017881Y008767*
X017941Y008689*
X019319Y007311*
X019397Y007251*
X019489Y007213*
X019587Y0072*
X023564*
X024035Y006729*
X02386Y006554*
X023842Y006527*
X023836Y006496*
Y006398*
X023842Y006366*
X02386Y00634*
X023958Y006242*
X023985Y006224*
X024016Y006218*
X024692*
X024705Y006216*
X02477*
X024782Y006218*
X025*
X025031Y006224*
X025058Y006242*
X025255Y006438*
X025272Y006465*
X025278Y006496*
Y006568*
X029363Y010653*
X029409Y010634*
Y0*
X00005*
X0Y00005*
Y019685*
X012482*
X012497Y019635*
X01247Y019617*
X012076Y019223*
X012037Y019164*
X012023Y019094*
Y016611*
X011145Y015733*
X008191*
X008156Y015756*
X008071Y015773*
X007986Y015756*
X007914Y015708*
X007866Y015636*
X007849Y015551*
X007866Y015466*
X007914Y015394*
X007986Y015346*
X008071Y015329*
X008156Y015346*
X008191Y015369*
X01122*
X01129Y015383*
X011349Y015423*
X012333Y016407*
X012373Y016466*
X012387Y016535*
Y019019*
X012674Y019306*
X02207*
X022554Y018822*
Y018821*
X022531Y018786*
X022514Y018701*
X022531Y018616*
X022579Y018544*
X022651Y018496*
X022736Y018479*
X022821Y018496*
X022893Y018544*
X022941Y018616*
X022958Y018701*
X022941Y018786*
X022918Y018821*
Y018898*
X022904Y018967*
X022865Y019026*
X022274Y019617*
X022247Y019635*
X022262Y019685*
X03252*
G37*
%LNdummyv1-2*%
%LPC*%
G36*
X017567Y005894D02*
X017484Y005883D01*
X017407Y005851*
X017341Y0058*
X017291Y005734*
X017259Y005657*
X017248Y005575*
X017259Y005492*
X017291Y005415*
X017341Y005349*
X017407Y005299*
X017484Y005267*
X017567Y005256*
X017649Y005267*
X017726Y005299*
X017792Y005349*
X017843Y005415*
X017875Y005492*
X017886Y005575*
X017875Y005657*
X017843Y005734*
X017792Y0058*
X017726Y005851*
X017649Y005883*
X017567Y005894*
G37*
G36*
X010002Y003793D02*
X009927Y003783D01*
X009857Y003755*
X009797Y003709*
X009777Y003682*
X009727*
X009706Y003709*
X009647Y003755*
X009577Y003783*
X009502Y003793*
X009427Y003783*
X009357Y003755*
X009298Y003709*
X009252Y003649*
X009223Y003579*
X009213Y003504*
Y00313*
X009223Y003055*
X009252Y002986*
X009298Y002926*
X009357Y00288*
X009427Y002851*
X009502Y002841*
X009577Y002851*
X009647Y00288*
X009706Y002926*
X009727Y002952*
X009777*
X009797Y002926*
X009857Y00288*
X009927Y002851*
X010002Y002841*
X010077Y002851*
X010147Y00288*
X010206Y002926*
X010252Y002986*
X010281Y003055*
X010291Y00313*
Y003504*
X010281Y003579*
X010252Y003649*
X010206Y003709*
X010147Y003755*
X010077Y003783*
X010002Y003793*
G37*
G36*
X020433Y007072D02*
X020348Y007056D01*
X020276Y007007*
X020228Y006935*
X020211Y00685*
X020228Y006765*
X02027Y006703*
Y0067*
X020271Y006687*
Y005087*
X020269*
X020197Y005039*
X020149Y004967*
X020132Y004882*
X020149Y004797*
X020197Y004725*
X020269Y004677*
X020354Y00466*
X020439Y004677*
X020511Y004725*
X020559Y004797*
X020576Y004882*
X020575Y004888*
X020583Y004899*
X020595Y004961*
Y00669*
X020596Y006699*
Y006703*
X020638Y006765*
X020655Y00685*
X020638Y006935*
X02059Y007007*
X020518Y007056*
X020433Y007072*
G37*
G36*
X018567Y005894D02*
X018484Y005883D01*
X018407Y005851*
X018341Y0058*
X018291Y005734*
X018259Y005657*
X018248Y005575*
X018259Y005492*
X018291Y005415*
X018341Y005349*
X018407Y005299*
X018484Y005267*
X018567Y005256*
X018649Y005267*
X018726Y005299*
X018792Y005349*
X018843Y005415*
X018875Y005492*
X018886Y005575*
X018875Y005657*
X018843Y005734*
X018792Y0058*
X018726Y005851*
X018649Y005883*
X018567Y005894*
G37*
G36*
X015551Y007348D02*
X015466Y007331D01*
X015394Y007283*
X015346Y007211*
X015329Y007126*
X015346Y007041*
X015388Y006978*
Y006975*
X015389Y006963*
Y006299*
X015402Y006237*
X015437Y006185*
X015709Y005912*
X015681Y00587*
X015649Y005883*
X015567Y005894*
X015484Y005883*
X015407Y005851*
X015341Y0058*
X015291Y005734*
X015259Y005657*
X015248Y005575*
X015259Y005492*
X015291Y005415*
X015341Y005349*
X015407Y005299*
X015484Y005267*
X015567Y005256*
X015649Y005267*
X015726Y005299*
X015792Y005349*
X015843Y005415*
X015875Y005492*
X015886Y005575*
X015875Y005657*
X015862Y005689*
X015904Y005717*
X01598Y005642*
Y00491*
X015629Y004558*
X015622Y004553*
X015619Y004551*
X015545Y004536*
X015473Y004488*
X015425Y004416*
X015408Y004331*
X015425Y004246*
X015473Y004174*
X015545Y004126*
X01563Y004109*
X015715Y004126*
X015787Y004174*
X015835Y004246*
X01585Y00432*
X015852Y004322*
X01586Y004332*
X016256Y004728*
X016291Y004781*
X016304Y004843*
Y005322*
X016354Y00534*
X016407Y005299*
X016484Y005267*
X016567Y005256*
X016649Y005267*
X016726Y005299*
X016792Y005349*
X016843Y005415*
X016875Y005492*
X016886Y005575*
X016875Y005657*
X016843Y005734*
X016792Y0058*
X016726Y005851*
X016649Y005883*
X016567Y005894*
X016484Y005883*
X016407Y005851*
X016341Y0058*
X016334Y005791*
X016275Y005795*
X016256Y005823*
X015713Y006366*
Y006966*
X015714Y006974*
Y006978*
X015756Y007041*
X015773Y007126*
X015756Y007211*
X015708Y007283*
X015636Y007331*
X015551Y007348*
G37*
G36*
X002559Y006974D02*
X002435Y006958D01*
X00232Y00691*
X002221Y006834*
X002145Y006735*
X002098Y00662*
X002081Y006496*
X002098Y006372*
X002145Y006257*
X002221Y006158*
X00232Y006082*
X002435Y006035*
X002559Y006018*
X002683Y006035*
X002798Y006082*
X002897Y006158*
X002973Y006257*
X003021Y006372*
X003037Y006496*
X003021Y00662*
X002973Y006735*
X002897Y006834*
X002798Y00691*
X002683Y006958*
X002559Y006974*
G37*
G36*
X014961Y007348D02*
X014876Y007331D01*
X014804Y007283*
X014755Y007211*
X014739Y007126*
X014755Y007041*
X014804Y006969*
X014819Y006959*
Y006958*
X01482Y006952*
Y00695*
Y005842*
X01477Y005818*
X014726Y005851*
X014649Y005883*
X014567Y005894*
X014484Y005883*
X014407Y005851*
X014341Y0058*
X014291Y005734*
X014259Y005657*
X014248Y005575*
X014259Y005492*
X014291Y005415*
X014341Y005349*
X014407Y005299*
X014484Y005267*
X014567Y005256*
X014649Y005267*
X014726Y005299*
X01477Y005332*
X01482Y005307*
Y00368*
X014832Y003618*
X014867Y003565*
X015094Y003338*
Y00331*
X015093Y003301*
Y003297*
X015051Y003235*
X015034Y00315*
X015051Y003065*
X015099Y002993*
X015171Y002944*
X015256Y002928*
X015341Y002944*
X015413Y002993*
X015461Y003065*
X015478Y00315*
X015461Y003235*
X015419Y003297*
Y0033*
X015418Y003313*
Y003406*
X015405Y003467*
X01537Y00352*
X015144Y003747*
Y006997*
X015145Y00701*
X015166Y007041*
X015183Y007126*
X015166Y007211*
X015118Y007283*
X015046Y007331*
X014961Y007348*
G37*
G36*
X019567Y005894D02*
X019484Y005883D01*
X019407Y005851*
X019341Y0058*
X019291Y005734*
X019259Y005657*
X019248Y005575*
X019259Y005492*
X019291Y005415*
X019341Y005349*
X019407Y005299*
X019484Y005267*
X019567Y005256*
X019649Y005267*
X019726Y005299*
X019792Y005349*
X019843Y005415*
X019875Y005492*
X019886Y005575*
X019875Y005657*
X019843Y005734*
X019792Y0058*
X019726Y005851*
X019649Y005883*
X019567Y005894*
G37*
G36*
X021102Y006561D02*
X021017Y006544D01*
X020945Y006496*
X020897Y006424*
X02088Y006339*
X020897Y006254*
X020945Y006182*
X021017Y006133*
X021045Y006128*
Y006077*
X021017Y006071*
X020945Y006023*
X020897Y005951*
X02088Y005866*
X020897Y005781*
X020945Y005709*
X021017Y005661*
X021102Y005644*
X021117Y005647*
X021155Y005615*
Y005495*
X021139Y005489*
X021105Y005486*
X021063Y005551*
X02099Y005599*
X020906Y005616*
X020821Y005599*
X020748Y005551*
X0207Y005479*
X020683Y005394*
X0207Y005309*
X020748Y005237*
X020821Y005189*
X020895Y005174*
X020898Y005171*
Y00144*
X02091Y001378*
X020945Y001326*
X021834Y000437*
X021887Y000402*
X021949Y000389*
X024469*
X024471*
X024477Y000388*
X024489Y000371*
X024561Y000323*
X024646Y000306*
X024731Y000323*
X024803Y000371*
X024851Y000443*
X024868Y000528*
X024851Y000613*
X024834Y000639*
X024857Y000683*
X024972*
X025061Y000594*
X025114Y000559*
X025176Y000547*
X025237*
X025244Y000546*
X025245*
X025309Y000503*
X025394Y000487*
X025479Y000503*
X025551Y000552*
X025599Y000624*
X025616Y000709*
X025599Y000794*
X025551Y000866*
X025514Y000891*
X025529Y000941*
X02673*
X026738Y00094*
X026742Y000939*
X026805Y000897*
X02689Y00088*
X026975Y000897*
X027047Y000945*
X027095Y001017*
X027112Y001102*
X027095Y001187*
X027047Y001259*
X026975Y001308*
X02689Y001324*
X026805Y001308*
X026742Y001266*
X026739Y001265*
X026726Y001264*
X022193*
X021737Y001721*
Y005866*
X021724Y005928*
X021689Y005981*
X02133Y00634*
X021324Y006346*
X021322Y006349*
X021308Y006424*
X021259Y006496*
X021187Y006544*
X021102Y006561*
G37*
G36*
X014567Y001894D02*
X014484Y001883D01*
X014407Y001851*
X014341Y0018*
X014291Y001734*
X014259Y001657*
X014248Y001575*
X014259Y001492*
X014291Y001415*
X014341Y001349*
X014407Y001299*
X014484Y001267*
X014567Y001256*
X014649Y001267*
X014726Y001299*
X014792Y001349*
X014843Y001415*
X014875Y001492*
X014886Y001575*
X014875Y001657*
X014843Y001734*
X014792Y0018*
X014726Y001851*
X014649Y001883*
X014567Y001894*
G37*
G36*
X015567D02*
X015484Y001883D01*
X015407Y001851*
X015341Y0018*
X015291Y001734*
X015259Y001657*
X015248Y001575*
X015259Y001492*
X015291Y001415*
X015341Y001349*
X015407Y001299*
X015484Y001267*
X015567Y001256*
X015649Y001267*
X015726Y001299*
X015792Y001349*
X015843Y001415*
X015875Y001492*
X015886Y001575*
X015875Y001657*
X015843Y001734*
X015792Y0018*
X015726Y001851*
X015649Y001883*
X015567Y001894*
G37*
G36*
X016567D02*
X016484Y001883D01*
X016407Y001851*
X016341Y0018*
X016291Y001734*
X016259Y001657*
X016248Y001575*
X016259Y001492*
X016291Y001415*
X016341Y001349*
X016407Y001299*
X016484Y001267*
X016567Y001256*
X016649Y001267*
X016726Y001299*
X016792Y001349*
X016843Y001415*
X016875Y001492*
X016886Y001575*
X016875Y001657*
X016843Y001734*
X016792Y0018*
X016726Y001851*
X016649Y001883*
X016567Y001894*
G37*
G36*
X01Y001579D02*
X009869Y001566D01*
X009742Y001528*
X009626Y001466*
X009524Y001382*
X00944Y00128*
X009377Y001163*
X009339Y001037*
X009326Y000906*
X009339Y000774*
X009377Y000648*
X00944Y000531*
X009524Y000429*
X009626Y000345*
X009742Y000283*
X009869Y000245*
X01Y000232*
X010131Y000245*
X010258Y000283*
X010374Y000345*
X010476Y000429*
X01056Y000531*
X010623Y000648*
X010661Y000774*
X010674Y000906*
X010661Y001037*
X010623Y001163*
X01056Y00128*
X010476Y001382*
X010374Y001466*
X010258Y001528*
X010131Y001566*
X01Y001579*
G37*
G36*
X002559Y001265D02*
X002435Y001249D01*
X00232Y001201*
X002221Y001125*
X002145Y001026*
X002098Y000911*
X002081Y000787*
X002098Y000664*
X002145Y000549*
X002221Y00045*
X00232Y000374*
X002435Y000326*
X002559Y00031*
X002683Y000326*
X002798Y000374*
X002897Y00045*
X002973Y000549*
X003021Y000664*
X003037Y000787*
X003021Y000911*
X002973Y001026*
X002897Y001125*
X002798Y001201*
X002683Y001249*
X002559Y001265*
G37*
G36*
X004528D02*
X004404Y001249D01*
X004289Y001201*
X00419Y001125*
X004114Y001026*
X004066Y000911*
X00405Y000787*
X004066Y000664*
X004114Y000549*
X00419Y00045*
X004289Y000374*
X004404Y000326*
X004528Y00031*
X004651Y000326*
X004766Y000374*
X004865Y00045*
X004941Y000549*
X004989Y000664*
X005005Y000787*
X004989Y000911*
X004941Y001026*
X004865Y001125*
X004766Y001201*
X004651Y001249*
X004528Y001265*
G37*
G36*
X008502Y003793D02*
X008427Y003783D01*
X008357Y003755*
X008298Y003709*
X008252Y003649*
X008223Y003579*
X008213Y003504*
Y00313*
X008223Y003055*
X008252Y002986*
X008298Y002926*
X008357Y00288*
X008427Y002851*
X008502Y002841*
X008577Y002851*
X008647Y00288*
X008706Y002926*
X008752Y002986*
X008781Y003055*
X008791Y00313*
Y003504*
X008781Y003579*
X008752Y003649*
X008706Y003709*
X008647Y003755*
X008577Y003783*
X008502Y003793*
G37*
G36*
X002521Y004529D02*
X000944D01*
Y002952*
X002521*
Y004529*
G37*
G36*
X006143D02*
X004566D01*
Y002952*
X006143*
Y004529*
G37*
G36*
X017567Y001894D02*
X017484Y001883D01*
X017407Y001851*
X017341Y0018*
X017291Y001734*
X017259Y001657*
X017248Y001575*
X017259Y001492*
X017291Y001415*
X017341Y001349*
X017407Y001299*
X017484Y001267*
X017567Y001256*
X017649Y001267*
X017726Y001299*
X017792Y001349*
X017843Y001415*
X017875Y001492*
X017886Y001575*
X017875Y001657*
X017843Y001734*
X017792Y0018*
X017726Y001851*
X017649Y001883*
X017567Y001894*
G37*
G36*
X018567D02*
X018484Y001883D01*
X018407Y001851*
X018341Y0018*
X018291Y001734*
X018259Y001657*
X018248Y001575*
X018259Y001492*
X018291Y001415*
X018341Y001349*
X018407Y001299*
X018484Y001267*
X018567Y001256*
X018649Y001267*
X018726Y001299*
X018792Y001349*
X018843Y001415*
X018875Y001492*
X018886Y001575*
X018875Y001657*
X018843Y001734*
X018792Y0018*
X018726Y001851*
X018649Y001883*
X018567Y001894*
G37*
G36*
X006102Y009277D02*
X006017Y00926D01*
X005945Y009212*
X005897Y00914*
X00588Y009055*
X005897Y00897*
X005945Y008898*
X006017Y00885*
X006102Y008833*
X006187Y00885*
X006192Y008853*
X006806*
X007377Y008282*
Y002756*
X007392Y002679*
X007436Y002613*
X007963Y002086*
X007964Y00208*
X008012Y002008*
X008084Y00196*
X008169Y001943*
X008254Y00196*
X008326Y002008*
X008374Y00208*
X008391Y002165*
X008374Y00225*
X008326Y002322*
X008254Y002371*
X008249Y002372*
X007781Y00284*
Y008366*
X007765Y008443*
X007722Y008509*
X007033Y009198*
X006967Y009242*
X00689Y009257*
X006192*
X006187Y00926*
X006102Y009277*
G37*
G36*
X020763Y015054D02*
X018337D01*
X018275Y015041*
X018222Y015006*
X018131Y014915*
X018055Y0149*
X017983Y014852*
X017935Y01478*
X017918Y014695*
X017935Y01461*
X017983Y014538*
X018055Y01449*
X01814Y014473*
X018225Y01449*
X018297Y014538*
X018345Y01461*
X01836Y014686*
X018404Y01473*
X020696*
X021191Y014234*
X021244Y014199*
X021306Y014187*
X021568*
X02163Y014199*
X021675Y014229*
X027353*
X027528Y014054*
X027534Y014047*
X027536Y014044*
X027551Y01397*
X027599Y013898*
X027671Y01385*
X027756Y013833*
X027841Y01385*
X027913Y013898*
X027961Y01397*
X027978Y014055*
X027961Y01414*
X027913Y014212*
X027841Y01426*
X027767Y014275*
X027764Y014277*
X027755Y014285*
X027534Y014506*
X027482Y014541*
X02742Y014553*
X021611*
X021549Y014541*
X021504Y014511*
X021373*
X020877Y015006*
X020825Y015041*
X020763Y015054*
G37*
G36*
X00206Y011347D02*
X001993Y011338D01*
X00193Y011312*
X001876Y011271*
X001838Y011221*
X001798Y011248*
X001713Y011265*
X001628Y011248*
X001556Y0112*
X001507Y011128*
X001491Y011043*
X001507Y010958*
X001556Y010886*
X001628Y010838*
X001713Y010821*
X001798Y010838*
X00187Y010886*
X001894Y01089*
X00193Y010863*
X001993Y010837*
X00206Y010828*
X002127Y010837*
X002189Y010863*
X002243Y010904*
X002284Y010958*
X00231Y011021*
X002319Y011088*
X00231Y011155*
X002284Y011217*
X002243Y011271*
X002189Y011312*
X002127Y011338*
X00206Y011347*
G37*
G36*
X00436Y016136D02*
X003494D01*
X003401Y016124*
X003315Y016088*
X00324Y016031*
X003183Y015957*
X003148Y01587*
X003135Y015778*
X003148Y015685*
X003183Y015598*
X00324Y015524*
X003315Y015467*
X003401Y015431*
X003494Y015419*
X003725*
Y014911*
X003741Y014834*
X003784Y014769*
X004863Y01369*
X004864Y013685*
X004912Y013613*
X004984Y013565*
X005069Y013548*
X005154Y013565*
X005226Y013613*
X005274Y013685*
X005291Y01377*
X005274Y013855*
X005226Y013927*
X005154Y013975*
X005148Y013976*
X004129Y014995*
Y015419*
X00436*
X004453Y015431*
X00454Y015467*
X004614Y015524*
X004671Y015598*
X004707Y015685*
X004719Y015778*
X004707Y01587*
X004671Y015957*
X004614Y016031*
X00454Y016088*
X004453Y016124*
X00436Y016136*
G37*
G36*
X011772Y010001D02*
X011674Y009988D01*
X011582Y00995*
X011504Y00989*
X011444Y009811*
X011406Y00972*
X011393Y009622*
X011406Y009524*
X011444Y009433*
X011504Y009354*
X011582Y009294*
X011674Y009256*
X011772Y009244*
X01187Y009256*
X011961Y009294*
X012039Y009354*
X012099Y009433*
X012137Y009524*
X01215Y009622*
X012137Y00972*
X012099Y009811*
X012039Y00989*
X011961Y00995*
X01187Y009988*
X011772Y010001*
G37*
G36*
X020551Y014237D02*
D01*
X013307*
X013237Y014223*
X013178Y014184*
X012799Y013804*
X012218*
X012202Y013805*
X012179Y013809*
X012162Y013814*
X012151Y013818*
X012147Y013821*
Y013997*
X011396*
Y013247*
X012147*
Y013424*
X012151Y013426*
X012162Y01343*
X012179Y013435*
X012202Y013439*
X012218Y01344*
X012874*
X012944Y013454*
X013003Y013493*
X013382Y013873*
X020476*
X020495Y013854*
X020503Y013813*
X020552Y013741*
X020624Y013692*
X020709Y013676*
X020794Y013692*
X020866Y013741*
X020914Y013813*
X020931Y013898*
X020914Y013983*
X020866Y014055*
X020794Y014103*
X020753Y014111*
X02068Y014184*
X020621Y014223*
X020551Y014237*
G37*
G36*
X011772Y011001D02*
X011674Y010988D01*
X011582Y01095*
X011504Y01089*
X011444Y010811*
X011406Y01072*
X011393Y010622*
X011406Y010524*
X011444Y010433*
X011504Y010354*
X011582Y010294*
X011674Y010256*
X011772Y010244*
X01187Y010256*
X011961Y010294*
X012039Y010354*
X012099Y010433*
X012137Y010524*
X01215Y010622*
X012137Y01072*
X012099Y010811*
X012039Y01089*
X011961Y01095*
X01187Y010988*
X011772Y011001*
G37*
G36*
X008425Y014671D02*
X00834Y014654D01*
X008268Y014606*
X00822Y014534*
X008203Y014449*
X00822Y014364*
X008243Y014329*
Y012718*
X00822Y012683*
X008203Y012598*
X00822Y012513*
X008268Y012441*
X00834Y012393*
X008425Y012376*
X00851Y012393*
X008582Y012441*
X00863Y012513*
X008647Y012598*
X00863Y012683*
X008607Y012718*
Y014329*
X00863Y014364*
X008647Y014449*
X00863Y014534*
X008582Y014606*
X00851Y014654*
X008425Y014671*
G37*
G36*
X008976Y014553D02*
X008891Y014536D01*
X008819Y014488*
X008771Y014416*
X008754Y014331*
X008771Y014246*
X008794Y014211*
Y012718*
X008771Y012683*
X008754Y012598*
X008771Y012513*
X008819Y012441*
X008891Y012393*
X008976Y012376*
X009061Y012393*
X009133Y012441*
X009182Y012513*
X009198Y012598*
X009182Y012683*
X009158Y012718*
Y014211*
X009182Y014246*
X009198Y014331*
X009182Y014416*
X009133Y014488*
X009061Y014536*
X008976Y014553*
G37*
G36*
X009567Y014986D02*
X009482Y014969D01*
X00941Y014921*
X009362Y014849*
X009345Y014764*
X009362Y014679*
X009385Y014644*
Y012758*
X009362Y012723*
X009345Y012638*
X009362Y012553*
X00941Y012481*
X009482Y012433*
X009567Y012416*
X009652Y012433*
X009724Y012481*
X009772Y012553*
X009789Y012638*
X009772Y012723*
X009749Y012758*
Y014644*
X009772Y014679*
X009789Y014764*
X009772Y014849*
X009724Y014921*
X009652Y014969*
X009567Y014986*
G37*
G36*
X030315Y016679D02*
X03023Y016662D01*
X030158Y016614*
X03011Y016542*
X030093Y016457*
X03011Y016372*
X030133Y016337*
Y01354*
X030082Y013489*
X028697*
X028678Y013509*
X02867Y01355*
X028622Y013622*
X02855Y01367*
X028465Y013687*
X02838Y01367*
X028308Y013622*
X028259Y01355*
X028242Y013465*
X028259Y01338*
X028308Y013308*
X02838Y013259*
X028421Y013251*
X028493Y013178*
X028552Y013139*
X028622Y013125*
X030157*
X030227Y013139*
X030286Y013178*
X030444Y013336*
X030483Y013395*
X030497Y013465*
Y016337*
X03052Y016372*
X030537Y016457*
X03052Y016542*
X030472Y016614*
X0304Y016662*
X030315Y016679*
G37*
G36*
X025669Y012151D02*
X025584Y012134D01*
X025521Y012092*
X024066*
X024061Y012095*
X023976Y012112*
X023891Y012095*
X023819Y012047*
X023771Y011975*
X023754Y01189*
X023771Y011805*
X023819Y011733*
X023891Y011685*
X023976Y011668*
X024061Y011685*
X024066Y011688*
X02563*
X025707Y011703*
X025732Y011719*
X025754Y011724*
X025826Y011772*
X025874Y011844*
X025891Y011929*
X025874Y012014*
X025826Y012086*
X025754Y012134*
X025669Y012151*
G37*
G36*
X011772Y013001D02*
X011674Y012988D01*
X011582Y01295*
X011504Y01289*
X011444Y012811*
X011406Y01272*
X011393Y012622*
X011406Y012524*
X011444Y012433*
X011504Y012354*
X011582Y012294*
X011674Y012256*
X011772Y012244*
X01187Y012256*
X011961Y012294*
X012039Y012354*
X012099Y012433*
X012137Y012524*
X01215Y012622*
X012137Y01272*
X012099Y012811*
X012039Y01289*
X011961Y01295*
X01187Y012988*
X011772Y013001*
G37*
G36*
X008425Y009946D02*
X00834Y00993D01*
X008268Y009881*
X00822Y009809*
X008203Y009724*
X00822Y009639*
X008243Y009605*
Y008742*
X00822Y008707*
X008203Y008622*
X00822Y008537*
X008268Y008465*
X00834Y008417*
X008425Y0084*
X00851Y008417*
X008582Y008465*
X00863Y008537*
X008647Y008622*
X00863Y008707*
X008607Y008742*
Y009605*
X00863Y009639*
X008647Y009724*
X00863Y009809*
X008582Y009881*
X00851Y00993*
X008425Y009946*
G37*
G36*
X005108Y018459D02*
X005015Y018447D01*
X004929Y018411*
X004855Y018354*
X004798Y01828*
X004762Y018193*
X00475Y0181*
Y017234*
X004762Y017141*
X004798Y017055*
X004855Y016981*
X004929Y016924*
X005015Y016888*
X005108Y016876*
X005201Y016888*
X005288Y016924*
X005362Y016981*
X005419Y017055*
X005455Y017141*
X005467Y017234*
Y0181*
X005455Y018193*
X005419Y01828*
X005362Y018354*
X005288Y018411*
X005201Y018447*
X005108Y018459*
G37*
G36*
X031378Y019492D02*
X031306Y019482D01*
X031238Y019454*
X031181Y01941*
X031136Y019352*
X031108Y019285*
X031099Y019213*
Y018819*
X031108Y018747*
X031136Y018679*
X031181Y018621*
X031238Y018577*
X031306Y018549*
X031378Y01854*
X03145Y018549*
X031518Y018577*
X031551Y018603*
X031601Y018578*
Y018542*
X031675*
X03168*
X031682Y018537*
X031686Y018527*
X031691Y01851*
X031695Y018487*
X031696Y018471*
Y018469*
X031618Y018391*
X030587*
X030233Y018745*
X030225Y018786*
X030177Y018858*
X030105Y018906*
X03002Y018923*
X029935Y018906*
X029863Y018858*
X029815Y018786*
X029798Y018701*
X029815Y018616*
X029863Y018544*
X029935Y018496*
X029976Y018487*
X030383Y01808*
X030442Y018041*
X030512Y018027*
X031693*
X031763Y018041*
X031822Y01808*
X032007Y018265*
X032046Y018324*
X03206Y018394*
Y018471*
X032061Y018487*
X032065Y01851*
X032069Y018527*
X032074Y018537*
X032076Y018542*
X032081*
X032155*
Y018621*
Y018623*
Y018625*
Y019489*
X031601*
Y019453*
X031551Y019429*
X031518Y019454*
X03145Y019482*
X031378Y019492*
G37*
G36*
X010709Y019453D02*
X010577Y01944D01*
X010451Y019402*
X010334Y01934*
X010232Y019256*
X010148Y019154*
X010086Y019037*
X010048Y018911*
X010035Y01878*
X010048Y018648*
X010086Y018522*
X010148Y018405*
X010232Y018303*
X010334Y018219*
X010451Y018157*
X010577Y018119*
X010709Y018106*
X01084Y018119*
X010967Y018157*
X011083Y018219*
X011185Y018303*
X011269Y018405*
X011331Y018522*
X01137Y018648*
X011382Y01878*
X01137Y018911*
X011331Y019037*
X011269Y019154*
X011185Y019256*
X011083Y01934*
X010967Y019402*
X01084Y01944*
X010709Y019453*
G37*
G36*
X001713Y009632D02*
X001628Y009615D01*
X001556Y009567*
X001507Y009495*
X001491Y00941*
X001507Y009325*
X001556Y009252*
X001628Y009204*
X001713Y009187*
X001798Y009204*
X001831Y009227*
X001835Y009226*
X001876Y009172*
X00193Y009131*
X001993Y009105*
X00206Y009096*
X002127Y009105*
X002189Y009131*
X002243Y009172*
X002284Y009226*
X00231Y009288*
X002319Y009355*
X00231Y009423*
X002284Y009485*
X002243Y009539*
X002189Y00958*
X002127Y009606*
X00206Y009615*
X001993Y009606*
X00193Y00958*
X001905Y009561*
X00187Y009567*
X001798Y009615*
X001713Y009632*
G37*
%LNdummyv1-3*%
%LPD*%
G36*
X026791Y001006D02*
X026787Y001009D01*
X026782Y001012*
X026775Y001015*
X026767Y001017*
X026758Y001019*
X026748Y001021*
X026723Y001023*
X026694Y001024*
Y001181*
X026709*
X026748Y001184*
X026758Y001186*
X026767Y001187*
X026775Y00119*
X026782Y001192*
X026787Y001195*
X026791Y001199*
Y001006*
G37*
G36*
X020526Y006748D02*
X020523Y006743D01*
X02052Y006736*
X020518Y006728*
X020516Y006719*
X020515Y006709*
X020513Y006684*
X020512Y006655*
X020354*
Y00667*
X020352Y006709*
X02035Y006719*
X020348Y006728*
X020346Y006736*
X020343Y006743*
X02034Y006748*
X020337Y006752*
X02053*
X020526Y006748*
G37*
G36*
X015644Y007023D02*
X015641Y007018D01*
X015639Y007012*
X015636Y007004*
X015634Y006995*
X015633Y006984*
X015631Y00696*
X01563Y00693*
X015472*
Y006946*
X01547Y006984*
X015468Y006995*
X015466Y007004*
X015464Y007012*
X015461Y007018*
X015458Y007023*
X015455Y007028*
X015648*
X015644Y007023*
G37*
G36*
X015069Y00704D02*
X015067Y007035D01*
X015066Y007029*
X015064Y007022*
X015062Y007003*
X015061Y006978*
Y006949*
X014903Y006918*
Y006933*
X014901Y00696*
X0149Y006972*
X014897Y006982*
X014895Y006991*
X014892Y006998*
X014889Y007005*
X014885Y00701*
X014881Y007014*
X015071Y007044*
X015069Y00704*
G37*
G36*
X024533Y00045D02*
X024529Y000454D01*
X024524Y000458*
X024517Y000461*
X02451Y000464*
X024501Y000467*
X024491Y000469*
X024479Y00047*
X024452Y000472*
X024437*
X02447Y00063*
X024485*
X024543Y000633*
X02455Y000635*
X024556Y000636*
X024561Y000638*
X024565Y00064*
X024533Y00045*
G37*
G36*
X025293Y000615D02*
X025289Y000618D01*
X025284Y00062*
X025278Y000623*
X025271Y000625*
X025262Y000626*
X025252Y000628*
X025228Y000629*
X025198Y00063*
Y000787*
X025213Y000788*
X025262Y000791*
X025271Y000793*
X025278Y000795*
X025284Y000797*
X025289Y0008*
X025293Y000802*
Y000615*
G37*
G36*
X021241Y006332D02*
X021242Y006326D01*
X021245Y006319*
X021249Y006312*
X021254Y006304*
X02126Y006296*
X021276Y006277*
X021296Y006256*
X021185Y006144*
X021174Y006155*
X021145Y006181*
X021136Y006187*
X021129Y006192*
X021121Y006196*
X021115Y006199*
X021109Y0062*
X021104Y006201*
X02124Y006337*
X021241Y006332*
G37*
G36*
X012067Y0138D02*
X012072Y013783D01*
X012082Y013769*
X012096Y013756*
X012114Y013745*
X012136Y013736*
X012162Y013729*
X012191Y013724*
X012225Y013721*
X012263Y01372*
Y013524*
X012225Y013523*
X012191Y01352*
X012162Y013515*
X012136Y013508*
X012114Y013499*
X012096Y013488*
X012082Y013475*
X012072Y013461*
X012067Y013444*
X012065Y013425*
Y013819*
X012067Y0138*
G37*
G36*
X015824Y004413D02*
X015813Y004402D01*
X015788Y004373*
X015782Y004365*
X015777Y004357*
X015773Y00435*
X01577Y004343*
X015768Y004337*
Y004332*
X015631Y004469*
X015637*
X015642Y004471*
X015649Y004473*
X015656Y004477*
X015664Y004482*
X015673Y004489*
X015691Y004504*
X015713Y004525*
X015824Y004413*
G37*
G36*
X021044Y005384D02*
X021045Y005379D01*
X021048Y005373*
X021052Y005366*
X021057Y005359*
X021063Y005351*
X021079Y005332*
X0211Y005311*
X020988Y0052*
X020977Y00521*
X02094Y005242*
X020933Y005247*
X020926Y005251*
X02092Y005254*
X020915Y005256*
X02091*
X021043Y005389*
X021044Y005384*
G37*
G36*
X020512Y005078D02*
X020487Y004918D01*
X020331Y005018*
X020336Y005019*
X02034Y005022*
X020343Y005027*
X020346Y005033*
X020349Y005041*
X020351Y00505*
X020352Y005061*
X020353Y005073*
X020354Y005102*
X020512Y005078*
G37*
G36*
X015335Y00333D02*
X015337Y003291D01*
X015339Y003281*
X015341Y003272*
X015343Y003264*
X015346Y003257*
X015349Y003252*
X015352Y003248*
X015159*
X015163Y003252*
X015166Y003257*
X015168Y003264*
X015171Y003272*
X015173Y003281*
X015174Y003291*
X015176Y003316*
X015177Y003345*
X015335*
Y00333*
G37*
G36*
X032055Y018621D02*
X032039Y018615D01*
X032024Y018606*
X032011Y018592*
X032001Y018574*
X031992Y018552*
X031985Y018527*
X03198Y018497*
X031977Y018464*
X031976Y018426*
X03178*
X031779Y018464*
X031776Y018497*
X031771Y018527*
X031764Y018552*
X031755Y018574*
X031745Y018592*
X031732Y018606*
X031717Y018615*
X031701Y018621*
X031682Y018623*
X032074*
X032055Y018621*
G37*
G36*
X021349Y005827D02*
X021251Y005703D01*
X02124Y005714*
X02122Y005731*
X021211Y005738*
X021203Y005743*
X021195Y005746*
X021188Y005749*
X021182Y00575*
X021177Y005749*
X021172Y005747*
X021225Y005928*
X021349Y005827*
G37*
G36*
X027684Y014238D02*
X027713Y014213D01*
X027722Y014207*
X02773Y014202*
X027737Y014198*
X027743Y014195*
X027749Y014193*
X027755*
X027618Y014057*
Y014062*
X027616Y014068*
X027613Y014074*
X027609Y014081*
X027604Y014089*
X027598Y014098*
X027582Y014117*
X027562Y014138*
X027673Y014249*
X027684Y014238*
G37*
G54D30*
X016437Y001575D02*
X016567D01*
X031878Y018394D02*
Y019016D01*
X031693Y018209D02*
X031878Y018394D01*
X030512Y018209D02*
X031693D01*
X03002Y018701D02*
X030512Y018209D01*
X022736Y018701D02*
Y018898D01*
X022146Y019488D02*
X022736Y018898D01*
X012598Y019488D02*
X022146D01*
X012205Y019094D02*
X012598Y019488D01*
X012205Y016535D02*
Y019094D01*
X01122Y015551D02*
X012205Y016535D01*
X008071Y015551D02*
X01122D01*
X014331Y012559D02*
X01811D01*
X020258Y010411*
X014252Y012638D02*
X014331Y012559D01*
X008425Y008622D02*
Y009724D01*
Y012598D02*
Y014449D01*
X008976Y012598D02*
Y014331D01*
X009567Y012638D02*
Y014764D01*
X020551Y014055D02*
X020709Y013898D01*
X013307Y014055D02*
X020551D01*
X012874Y013622D02*
X013307Y014055D01*
X011772Y013622D02*
X012874D01*
X030315Y013465D02*
Y016457D01*
X030157Y013307D02*
X030315Y013465D01*
X028622Y013307D02*
X030157D01*
X028465Y013465D02*
X028622Y013307D01*
X023327Y012972D02*
X023346Y012992D01*
X020258Y011596D02*
X020856Y012195D01*
X020258Y010411D02*
Y011596D01*
X02626Y013691D02*
Y013701D01*
G54D31*
X006102Y009055D02*
X00689D01*
X007579Y008366*
Y002756D02*
Y008366D01*
Y002756D02*
X008169Y002165D01*
X023976Y01189D02*
X02563D01*
X025669Y011929*
X019528Y012559D02*
X024134D01*
X003927Y014911D02*
X005069Y01377D01*
X003927Y014911D02*
Y015778D01*
G54D32*
X030217Y012041D02*
Y01252D01*
X02372Y007579D02*
X024705Y006594D01*
X02477D02*
X030217Y012041D01*
X024705Y006594D02*
X02477D01*
X018209Y008957D02*
Y011024D01*
Y008957D02*
X019587Y007579D01*
X02372*
G54D33*
X01814Y014695D02*
X018337Y014892D01*
X020763D02*
X021306Y014349D01*
X018337Y014892D02*
X020763D01*
X01939Y009055D02*
Y010888D01*
X018584Y011694D02*
X01939Y010888D01*
X017796Y011694D02*
X018584D01*
X017618Y011516D02*
X017796Y011694D01*
X017421Y011516D02*
X017618D01*
X015409Y009503D02*
X017421Y011516D01*
X015153Y009503D02*
X015409D01*
X014298Y008648D02*
X015153Y009503D01*
X014298Y00826D02*
Y008648D01*
X013814Y007776D02*
X014298Y00826D01*
X01378Y007776D02*
X013814D01*
X020433Y004961D02*
Y00685D01*
X020354Y004882D02*
X020433Y004961D01*
X015256Y00315D02*
Y003406D01*
X014982Y00368D02*
X015256Y003406D01*
X02742Y014391D02*
X027756Y014055D01*
X021611Y014391D02*
X02742D01*
X021568Y014349D02*
X021611Y014391D01*
X021306Y014349D02*
X021568D01*
X017518Y01189D02*
X01752Y011888D01*
X017426Y01189D02*
X017518D01*
X015297Y009761D02*
X017426Y01189D01*
X01519Y010018D02*
X017377Y012205D01*
X017913*
X014939Y010018D02*
X01519D01*
X015046Y009761D02*
X015297D01*
X01404Y008755D02*
X015046Y009761D01*
X01404Y00845D02*
Y008755D01*
X01378Y008189D02*
X01404Y00845D01*
X013661Y00874D02*
X014939Y010018D01*
X01563Y004331D02*
X016142Y004843D01*
Y005709*
X015551Y006299D02*
X016142Y005709D01*
X015551Y006299D02*
Y007126D01*
X014982Y00368D02*
Y007105D01*
X014961Y007126D02*
X014982Y007105D01*
X015236Y010551D02*
X015276D01*
X014961Y010276D02*
X015236Y010551D01*
X013032Y010276D02*
X014961D01*
X013031D02*
X013032D01*
X020906Y005394D02*
X02106Y005239D01*
Y00144D02*
Y005239D01*
Y00144D02*
X021949Y000551D01*
X024623*
X024646Y000528*
X021102Y005866D02*
X021199D01*
X021317Y005748*
Y001547D02*
Y005748D01*
Y001547D02*
X022019Y000845D01*
X025039*
X025176Y000709*
X025394*
X021102Y006339D02*
X021575Y005866D01*
Y001654D02*
Y005866D01*
Y001654D02*
X022126Y001102D01*
X02689*
G54D35*
X02874Y007283D02*
X03189D01*
G54D38*
X0Y0D02*
Y019685D01*
X03937*
Y0D02*
Y019685D01*
X0Y0D02*
X03937D01*
G54D39*
X002825Y017667D03*
X005108D03*
G54D40*
X003927Y015778D03*
G54D41*
X00206Y011088D03*
Y009355D03*
G54D42*
X001713Y011043D03*
Y00941D03*
X019282Y014567D03*
X01814Y014695D03*
X027293Y016949D03*
X027963Y016211D03*
X020817Y018701D03*
X022717Y017441D03*
X008976Y007421D03*
X010748Y016585D03*
X009774Y016575D03*
X011713Y01751D03*
X010768Y01753D03*
X009793Y01752D03*
X0106Y011132D03*
X010591Y010148D03*
X0106Y009006D03*
X010571Y007913D03*
X01939Y009055D03*
X01378Y007776D03*
X020433Y00685D03*
X032185Y014567D03*
X031791Y013878D03*
X031201Y013287D03*
X029134Y010039D03*
Y00935D03*
Y008661D03*
X028937Y006693D03*
X029035Y006004D03*
Y005315D03*
Y004626D03*
Y003937D03*
Y003248D03*
Y002559D03*
Y00187D03*
Y001181D03*
Y000492D03*
X022047Y006594D03*
X012303Y00561D03*
Y004331D03*
Y003051D03*
Y001772D03*
X020177Y002165D03*
X018504Y000394D03*
X017323D03*
X016142D03*
X014961D03*
X01378D03*
X012598D03*
X011417D03*
X025295Y013484D03*
Y012697D03*
X024705Y008268D03*
X025295Y008858D03*
Y009646D03*
Y010433D03*
Y01122D03*
X024311D03*
Y010433D03*
Y009646D03*
X02372Y009154D03*
X022933D03*
X023524Y015453D03*
X022343D03*
X02372Y016634D03*
X022539D03*
X024803Y017717D03*
X023622D03*
X029528Y019291D03*
X028346D03*
X027165D03*
X025984D03*
X024902D03*
X023622D03*
X03002Y018701D03*
X022736D03*
X008071Y015551D03*
X030197Y01252D03*
X02874Y007283D03*
X03189D03*
X017913Y01122D03*
X018406D03*
X024213Y006594D03*
X024705D03*
X015256Y00315D03*
X006102Y009055D03*
X008169Y002165D03*
X004334Y013819D03*
X000394Y000394D03*
Y001575D03*
Y002756D03*
Y003937D03*
Y005118D03*
Y006299D03*
Y00748D03*
Y013878D03*
Y015059D03*
X006988Y004331D03*
Y005512D03*
Y006693D03*
X005709Y009744D03*
X004232Y009646D03*
Y008465D03*
X007283Y009744D03*
Y010925D03*
Y012106D03*
X023976Y01189D03*
X025669Y011929D03*
X024134Y012559D03*
X027756Y014055D03*
X016772Y014449D03*
X01752Y011888D03*
X017913Y012205D03*
X01378Y008189D03*
X013661Y00874D03*
X008425Y008622D03*
Y009724D03*
Y012598D03*
Y014449D03*
X008976Y014331D03*
Y012598D03*
X009567Y014764D03*
Y012638D03*
X019961Y009094D03*
X014252Y012638D03*
X020258Y010411D03*
X015758Y008927D03*
X01563Y004331D03*
X015551Y007126D03*
X014961D03*
X020354Y004882D03*
X015276Y010551D03*
X013031Y010276D03*
X020709Y013898D03*
X020443Y018297D03*
X021457Y015354D03*
X021437Y014665D03*
X016555Y019035D03*
X017323Y019055D03*
X01811D03*
X018937Y018898D03*
X01937Y018386D03*
Y017205D03*
Y017795D03*
Y016614D03*
Y015827D03*
X019055Y015315D03*
X018386Y015276D03*
X017717D03*
X01689D03*
X015276D03*
X014449D03*
X01378D03*
X01311Y015315D03*
X012795Y015827D03*
Y016614D03*
Y017795D03*
Y017205D03*
Y018386D03*
X013228Y018898D03*
X014055Y019055D03*
X014843D03*
X022244Y011181D03*
Y010394D03*
Y009606D03*
X01561Y019035D03*
X029193Y011772D03*
X025295Y014075D03*
X026693Y016299D03*
X028465Y013465D03*
X030315Y016457D03*
X020906Y005394D03*
X024646Y000528D03*
X021102Y005866D03*
X025394Y000709D03*
X021102Y006339D03*
X02689Y001102D03*
X023327Y012972D03*
X019528Y012559D03*
X020856Y012195D03*
X031496Y015748D03*
X02626Y013701D03*
X032224Y015876D03*
Y017126D03*
X005069Y01377D03*
G54D43*
X011772Y009622D03*
Y010622D03*
Y011622D03*
Y012622D03*
X026274Y010581D03*
G54D44*
X011772Y013622D03*
G54D45*
X035764Y018543D03*
X034764D03*
G54D46*
X033764Y018543D03*
G54D47*
X030878Y019016D03*
X031378D03*
G54D48*
X031878Y019016D03*
G54D49*
X014567Y001575D03*
X015567D03*
X016567D03*
X017567D03*
X018567D03*
Y005575D03*
X017567D03*
X016567D03*
X015567D03*
X014567D03*
X019567D03*
G54D50*
X002559Y000787D03*
X004528D03*
X003543D03*
X004528Y006496D03*
X002559D03*
G54D51*
X005354Y00374D03*
X001732D03*
G54D52*
X010002Y003317D03*
X009502D03*
X008502D03*
G54D53*
X009002Y003317D03*
G54D54*
X037303Y006283D03*
Y008283D03*
G54D55*
X010709Y01878D03*
X01Y000906D03*
X038465Y01878D03*
Y000906D03*
G54D56*
X036142Y010512D03*
X036122Y004134D03*
G54D57*
X027274Y010581D03*
G54D58*
X03872Y013602D03*
X038071Y013593D03*
X038287Y015148D03*
X037707D03*
G54D59*
X038268Y01748D03*
X037323D03*
X035118Y017559D03*
X034331D03*
G54D60*
X034882Y017087D02*
X036142Y015827D01*
Y010512D02*
Y015827D01*
M02*