M48
;Layer_Color=9474304
;FILE_FORMAT=2:4
INCH
;TYPE=PLATED
T1F00S00C0.0118
T2F00S00C0.0157
T3F00S00C0.0217
T4F00S00C0.0276
T5F00S00C0.0280
T6F00S00C0.0295
T7F00S00C0.0315
T9F00S00C0.0354
T10F00S00C0.0394
T11F00S00C0.0630
T13F00S00C0.1181
T14F00S00C0.2362
;TYPE=NON_PLATED
T15F00S00C0.0354
%
T01
X000394Y000394
Y001575
Y002756
Y003937
Y005118
X006988Y005512
Y004331
X008169Y002165
X012303Y001772
Y003051
Y004331
Y005610
X015630Y004331
X015256Y003150
X014961Y000394
X016142
X017323
X018504
X020177Y002165
X020354Y004882
X020906Y005394
X013780Y000394
X012598
X011417
X024646Y000528
X025394Y000709
X026890Y001102
X029035Y001181
Y000492
Y001870
Y002559
Y003248
Y003937
Y004626
Y005315
Y006004
X028937Y006693
X028740Y007283
X029134Y008661
Y009350
Y010039
X029193Y011772
X030197Y012520
X031201Y013287
X031791Y013878
X032185Y014567
X032224Y015876
X031496Y015748
X030315Y016457
X030020Y018701
X029528Y019291
X028346
X027165
X025984
X024902
X023622
X022736Y018701
X022717Y017441
X022539Y016634
X023720
X023622Y017717
X024803
X027293Y016949
X026693Y016299
X027963Y016211
X027756Y014055
X028465Y013465
X026260Y013701
X025295Y013484
Y014075
Y012697
X025669Y011929
X025295Y011220
Y010433
Y009646
Y008858
X024705Y008268
Y006594
X024213
X022047
X022244Y009606
Y010394
X022244Y011181
X024311Y011220
Y010433
Y009646
X023720Y009154
X022933
X023976Y011890
X024134Y012559
X023327Y012972
X023524Y015453
X022343
X021457Y015354
X021437Y014665
X032224Y017126
X031890Y007283
X021102Y006339
X021102Y005866
X020433Y006850
X019961Y009094
X019390Y009055
X020258Y010411
X020856Y012195
X019528Y012559
X017913Y012205
X017520Y011888
X017913Y011220
X018406
X018140Y014695
X018386Y015276
X017717
X016890
X016772Y014449
X015276Y015276
X014449
X013780
X013110Y015315
X012795Y015827
Y016614
Y017205
Y017795
Y018386
X013228Y018898
X014055Y019055
X014843
X015610Y019035
X016555Y019035
X017323Y019055
X018110
X018937Y018898
X019370Y018386
Y017795
Y017205
Y016614
Y015827
X019055Y015315
X019282Y014567
X020709Y013898
X020443Y018297
X020817Y018701
X011713Y017510
X010768Y017530
X010748Y016585
X009774Y016575
X009793Y017520
X009567Y014764
X008976Y014331
X008425Y014449
X008071Y015551
X008425Y012598
X008976
X009567Y012638
X010600Y011132
X010591Y010148
X010600Y009006
X010571Y007913
X008976Y007421
X008425Y008622
Y009724
X007283Y009744
Y010925
Y012106
X005709Y009744
X006102Y009055
X006988Y006693
X013780Y007776
Y008189
X013661Y008740
X013031Y010276
X015276Y010551
X015758Y008927
X015551Y007126
X014961
X014252Y012638
X005069Y013770
X004334Y013819
X000394Y013878
Y015059
Y007480
Y006299
X004232Y008465
Y009646
T02
X038071Y013593
X038720Y013602
X038287Y015148
X037707
T03
X014567Y001575
X015567
X016567
X017567
X018567
Y005575
X017567
X016567
X015567
X014567
X019567
T04
X001713Y009410
Y011043
T05
X037323Y017480
X038268
X035118Y017559
X034331
T06
X030878Y019016
X031378
X031878
T07
X008502Y003317
X009002
X009502
X010002
T09
X026274Y010581
X027274
X011772Y010622
Y009622
Y011622
Y012622
Y013622
T10
X002559Y000787
X003543
X004528
X033764Y018543
X034764
X035764
X004528Y006496
X002559
T11
X037303Y006283
Y008283
T13
X010000Y000906
X038465
Y018780
X010709
T14
X036122Y004134
X036142Y010512
T15
X002060Y009355
Y011088
M30
