%FSTAX24Y24*%
%MOIN*%
%SFA1B1*%

%IPPOS*%
%ADD38C,0.003900*%
%ADD102C,0.002000*%
%LNdummyv1-1*%
%LPD*%
G54D38*
X0Y0D02*
Y019685D01*
X03937*
Y0D02*
Y019685D01*
X0Y0D02*
X03937D01*
G54D102*
X002667Y017667D02*
X002982D01*
X002825Y01751D02*
Y017825D01*
X00377Y015778D02*
X004085D01*
X003927Y01562D02*
Y015935D01*
X004951Y017667D02*
X005266D01*
X005108Y01751D02*
Y017825D01*
X001883Y011088D02*
X002237D01*
X00206Y010911D02*
Y011265D01*
X001883Y009355D02*
X002237D01*
X00206Y009178D02*
Y009533D01*
X001575Y011043D02*
X00185D01*
X001713Y010906D02*
Y011181D01*
X001575Y00941D02*
X00185D01*
X001713Y009272D02*
Y009547D01*
X011594Y009622D02*
X011949D01*
X011772Y009445D02*
Y009799D01*
X011594Y010622D02*
X011949D01*
X011772Y010445D02*
Y010799D01*
X011594Y011622D02*
X011949D01*
X011772Y011445D02*
Y011799D01*
X011594Y012622D02*
X011949D01*
X011772Y012445D02*
Y012799D01*
X011594Y013622D02*
X011949D01*
X011772Y013445D02*
Y013799D01*
X035567Y018543D02*
X035961D01*
X035764Y018346D02*
Y01874D01*
X034567Y018543D02*
X034961D01*
X034764Y018346D02*
Y01874D01*
X033567Y018543D02*
X033961D01*
X033764Y018346D02*
Y01874D01*
X03073Y019016D02*
X031026D01*
X030878Y018868D02*
Y019163D01*
X03123Y019016D02*
X031526D01*
X031378Y018868D02*
Y019163D01*
X03173Y019016D02*
X032026D01*
X031878Y018868D02*
Y019163D01*
X014459Y001575D02*
X014675D01*
X014567Y001467D02*
Y001683D01*
X015459Y001575D02*
X015675D01*
X015567Y001467D02*
Y001683D01*
X016459Y001575D02*
X016675D01*
X016567Y001467D02*
Y001683D01*
X017459Y001575D02*
X017675D01*
X017567Y001467D02*
Y001683D01*
X018459Y001575D02*
X018675D01*
X018567Y001467D02*
Y001683D01*
X018459Y005575D02*
X018675D01*
X018567Y005467D02*
Y005683D01*
X017459Y005575D02*
X017675D01*
X017567Y005467D02*
Y005683D01*
X016459Y005575D02*
X016675D01*
X016567Y005467D02*
Y005683D01*
X015459Y005575D02*
X015675D01*
X015567Y005467D02*
Y005683D01*
X014459Y005575D02*
X014675D01*
X014567Y005467D02*
Y005683D01*
X019459Y005575D02*
X019675D01*
X019567Y005467D02*
Y005683D01*
X002362Y000787D02*
X002756D01*
X002559Y000591D02*
Y000984D01*
X004331Y000787D02*
X004724D01*
X004528Y000591D02*
Y000984D01*
X003346Y000787D02*
X00374D01*
X003543Y000591D02*
Y000984D01*
X004331Y006496D02*
X004724D01*
X004528Y006299D02*
Y006693D01*
X002362Y006496D02*
X002756D01*
X002559Y006299D02*
Y006693D01*
X005Y00374D02*
X005709D01*
X005354Y003386D02*
Y004094D01*
X001378Y00374D02*
X002087D01*
X001732Y003386D02*
Y004094D01*
X009844Y003317D02*
X010159D01*
X010002Y00316D02*
Y003475D01*
X009344Y003317D02*
X009659D01*
X009502Y00316D02*
Y003475D01*
X008844Y003317D02*
X009159D01*
X009002Y00316D02*
Y003475D01*
X008344Y003317D02*
X008659D01*
X008502Y00316D02*
Y003475D01*
X036988Y006283D02*
X037618D01*
X037303Y005969D02*
Y006598D01*
X036988Y008283D02*
X037618D01*
X037303Y007969D02*
Y008598D01*
X010118Y01878D02*
X011299D01*
X010709Y018189D02*
Y01937D01*
X009409Y000906D02*
X010591D01*
X01Y000315D02*
Y001496D01*
X037874Y01878D02*
X039055D01*
X038465Y018189D02*
Y01937D01*
X037874Y000906D02*
X039055D01*
X038465Y000315D02*
Y001496D01*
X034961Y010512D02*
X037323D01*
X036142Y009331D02*
Y011693D01*
X034941Y004134D02*
X037303D01*
X036122Y002953D02*
Y005315D01*
X026096Y010581D02*
X026451D01*
X026274Y010404D02*
Y010758D01*
X027096Y010581D02*
X027451D01*
X027274Y010404D02*
Y010758D01*
X019222Y014567D02*
X019341D01*
X019282Y014508D02*
Y014626D01*
X018081Y014695D02*
X018199D01*
X01814Y014636D02*
Y014754D01*
X027234Y016949D02*
X027352D01*
X027293Y01689D02*
Y017008D01*
X027904Y016211D02*
X028022D01*
X027963Y016152D02*
Y01627D01*
X020758Y018701D02*
X020876D01*
X020817Y018642D02*
Y01876D01*
X022657Y017441D02*
X022776D01*
X022717Y017382D02*
Y0175D01*
X008917Y007421D02*
X009035D01*
X008976Y007362D02*
Y00748D01*
X010689Y016585D02*
X010807D01*
X010748Y016526D02*
Y016644D01*
X009715Y016575D02*
X009833D01*
X009774Y016516D02*
Y016634D01*
X011654Y01751D02*
X011772D01*
X011713Y017451D02*
Y017569D01*
X010709Y01753D02*
X010827D01*
X010768Y01747D02*
Y017589D01*
X009734Y01752D02*
X009852D01*
X009793Y017461D02*
Y017579D01*
X038642Y013602D02*
X038799D01*
X03872Y013524D02*
Y013681D01*
X037992Y013593D02*
X03815D01*
X038071Y013514D02*
Y013671D01*
X038209Y015148D02*
X038366D01*
X038287Y015069D02*
Y015226D01*
X037628Y015148D02*
X037785D01*
X037707Y015069D02*
Y015226D01*
X010541Y011132D02*
X010659D01*
X0106Y011073D02*
Y011191D01*
X010532Y010148D02*
X01065D01*
X010591Y010089D02*
Y010207D01*
X010541Y009006D02*
X010659D01*
X0106Y008947D02*
Y009065D01*
X010512Y007913D02*
X01063D01*
X010571Y007854D02*
Y007972D01*
X019331Y009055D02*
X019449D01*
X01939Y008996D02*
Y009114D01*
X01372Y007776D02*
X013839D01*
X01378Y007717D02*
Y007835D01*
X020374Y00685D02*
X020492D01*
X020433Y006791D02*
Y006909D01*
X032126Y014567D02*
X032244D01*
X032185Y014508D02*
Y014626D01*
X031732Y013878D02*
X03185D01*
X031791Y013819D02*
Y013937D01*
X031142Y013287D02*
X03126D01*
X031201Y013228D02*
Y013346D01*
X029075Y010039D02*
X029193D01*
X029134Y00998D02*
Y010098D01*
X029075Y00935D02*
X029193D01*
X029134Y009291D02*
Y009409D01*
X029075Y008661D02*
X029193D01*
X029134Y008602D02*
Y00872D01*
X028878Y006693D02*
X028996D01*
X028937Y006634D02*
Y006752D01*
X028976Y006004D02*
X029094D01*
X029035Y005945D02*
Y006063D01*
X028976Y005315D02*
X029094D01*
X029035Y005256D02*
Y005374D01*
X028976Y004626D02*
X029094D01*
X029035Y004567D02*
Y004685D01*
X028976Y003937D02*
X029094D01*
X029035Y003878D02*
Y003996D01*
X028976Y003248D02*
X029094D01*
X029035Y003189D02*
Y003307D01*
X028976Y002559D02*
X029094D01*
X029035Y0025D02*
Y002618D01*
X028976Y00187D02*
X029094D01*
X029035Y001811D02*
Y001929D01*
X028976Y001181D02*
X029094D01*
X029035Y001122D02*
Y00124D01*
X028976Y000492D02*
X029094D01*
X029035Y000433D02*
Y000551D01*
X021988Y006594D02*
X022106D01*
X022047Y006535D02*
Y006654D01*
X012244Y00561D02*
X012362D01*
X012303Y005551D02*
Y005669D01*
X012244Y004331D02*
X012362D01*
X012303Y004272D02*
Y00439D01*
X012244Y003051D02*
X012362D01*
X012303Y002992D02*
Y00311D01*
X012244Y001772D02*
X012362D01*
X012303Y001713D02*
Y001831D01*
X020118Y002165D02*
X020236D01*
X020177Y002106D02*
Y002224D01*
X018445Y000394D02*
X018563D01*
X018504Y000335D02*
Y000453D01*
X017264Y000394D02*
X017382D01*
X017323Y000335D02*
Y000453D01*
X016083Y000394D02*
X016201D01*
X016142Y000335D02*
Y000453D01*
X014902Y000394D02*
X01502D01*
X014961Y000335D02*
Y000453D01*
X01372Y000394D02*
X013839D01*
X01378Y000335D02*
Y000453D01*
X012539Y000394D02*
X012657D01*
X012598Y000335D02*
Y000453D01*
X011358Y000394D02*
X011476D01*
X011417Y000335D02*
Y000453D01*
X025236Y013484D02*
X025354D01*
X025295Y013425D02*
Y013543D01*
X025236Y012697D02*
X025354D01*
X025295Y012638D02*
Y012756D01*
X024646Y008268D02*
X024764D01*
X024705Y008209D02*
Y008327D01*
X025236Y008858D02*
X025354D01*
X025295Y008799D02*
Y008917D01*
X025236Y009646D02*
X025354D01*
X025295Y009587D02*
Y009705D01*
X025236Y010433D02*
X025354D01*
X025295Y010374D02*
Y010492D01*
X025236Y01122D02*
X025354D01*
X025295Y011161D02*
Y01128D01*
X024252Y01122D02*
X02437D01*
X024311Y011161D02*
Y01128D01*
X024252Y010433D02*
X02437D01*
X024311Y010374D02*
Y010492D01*
X024252Y009646D02*
X02437D01*
X024311Y009587D02*
Y009705D01*
X023661Y009154D02*
X02378D01*
X02372Y009094D02*
Y009213D01*
X022874Y009154D02*
X022992D01*
X022933Y009094D02*
Y009213D01*
X023465Y015453D02*
X023583D01*
X023524Y015394D02*
Y015512D01*
X022283Y015453D02*
X022402D01*
X022343Y015394D02*
Y015512D01*
X023661Y016634D02*
X02378D01*
X02372Y016575D02*
Y016693D01*
X02248Y016634D02*
X022598D01*
X022539Y016575D02*
Y016693D01*
X024744Y017717D02*
X024862D01*
X024803Y017657D02*
Y017776D01*
X023563Y017717D02*
X023681D01*
X023622Y017657D02*
Y017776D01*
X029469Y019291D02*
X029587D01*
X029528Y019232D02*
Y01935D01*
X028287Y019291D02*
X028406D01*
X028346Y019232D02*
Y01935D01*
X027106Y019291D02*
X027224D01*
X027165Y019232D02*
Y01935D01*
X025925Y019291D02*
X026043D01*
X025984Y019232D02*
Y01935D01*
X024843Y019291D02*
X024961D01*
X024902Y019232D02*
Y01935D01*
X023563Y019291D02*
X023681D01*
X023622Y019232D02*
Y01935D01*
X029961Y018701D02*
X030079D01*
X03002Y018642D02*
Y01876D01*
X022677Y018701D02*
X022795D01*
X022736Y018642D02*
Y01876D01*
X008012Y015551D02*
X00813D01*
X008071Y015492D02*
Y01561D01*
X030138Y01252D02*
X030256D01*
X030197Y012461D02*
Y012579D01*
X028681Y007283D02*
X028799D01*
X02874Y007224D02*
Y007343D01*
X031831Y007283D02*
X031949D01*
X03189Y007224D02*
Y007343D01*
X017854Y01122D02*
X017972D01*
X017913Y011161D02*
Y01128D01*
X018346Y01122D02*
X018465D01*
X018406Y011161D02*
Y01128D01*
X024154Y006594D02*
X024272D01*
X024213Y006535D02*
Y006654D01*
X024646Y006594D02*
X024764D01*
X024705Y006535D02*
Y006654D01*
X015197Y00315D02*
X015315D01*
X015256Y003091D02*
Y003209D01*
X006043Y009055D02*
X006161D01*
X006102Y008996D02*
Y009114D01*
X00811Y002165D02*
X008228D01*
X008169Y002106D02*
Y002224D01*
X004275Y013819D02*
X004393D01*
X004334Y01376D02*
Y013878D01*
X000335Y000394D02*
X000453D01*
X000394Y000335D02*
Y000453D01*
X000335Y001575D02*
X000453D01*
X000394Y001516D02*
Y001634D01*
X000335Y002756D02*
X000453D01*
X000394Y002697D02*
Y002815D01*
X000335Y003937D02*
X000453D01*
X000394Y003878D02*
Y003996D01*
X000335Y005118D02*
X000453D01*
X000394Y005059D02*
Y005177D01*
X000335Y006299D02*
X000453D01*
X000394Y00624D02*
Y006358D01*
X000335Y00748D02*
X000453D01*
X000394Y007421D02*
Y007539D01*
X000335Y013878D02*
X000453D01*
X000394Y013819D02*
Y013937D01*
X000335Y015059D02*
X000453D01*
X000394Y015D02*
Y015118D01*
X006929Y004331D02*
X007047D01*
X006988Y004272D02*
Y00439D01*
X006929Y005512D02*
X007047D01*
X006988Y005453D02*
Y005571D01*
X006929Y006693D02*
X007047D01*
X006988Y006634D02*
Y006752D01*
X00565Y009744D02*
X005768D01*
X005709Y009685D02*
Y009803D01*
X004173Y009646D02*
X004291D01*
X004232Y009587D02*
Y009705D01*
X004173Y008465D02*
X004291D01*
X004232Y008406D02*
Y008524D01*
X007224Y009744D02*
X007343D01*
X007283Y009685D02*
Y009803D01*
X007224Y010925D02*
X007343D01*
X007283Y010866D02*
Y010984D01*
X007224Y012106D02*
X007343D01*
X007283Y012047D02*
Y012165D01*
X023917Y01189D02*
X024035D01*
X023976Y011831D02*
Y011949D01*
X02561Y011929D02*
X025728D01*
X025669Y01187D02*
Y011988D01*
X024075Y012559D02*
X024193D01*
X024134Y0125D02*
Y012618D01*
X027697Y014055D02*
X027815D01*
X027756Y013996D02*
Y014114D01*
X016713Y014449D02*
X016831D01*
X016772Y01439D02*
Y014508D01*
X017461Y011888D02*
X017579D01*
X01752Y011829D02*
Y011947D01*
X017854Y012205D02*
X017972D01*
X017913Y012146D02*
Y012264D01*
X01372Y008189D02*
X013839D01*
X01378Y00813D02*
Y008248D01*
X013602Y00874D02*
X01372D01*
X013661Y008681D02*
Y008799D01*
X008366Y008622D02*
X008484D01*
X008425Y008563D02*
Y008681D01*
X008366Y009724D02*
X008484D01*
X008425Y009665D02*
Y009783D01*
X008366Y012598D02*
X008484D01*
X008425Y012539D02*
Y012657D01*
X008366Y014449D02*
X008484D01*
X008425Y01439D02*
Y014508D01*
X008917Y014331D02*
X009035D01*
X008976Y014272D02*
Y01439D01*
X008917Y012598D02*
X009035D01*
X008976Y012539D02*
Y012657D01*
X009508Y014764D02*
X009626D01*
X009567Y014705D02*
Y014823D01*
X009508Y012638D02*
X009626D01*
X009567Y012579D02*
Y012697D01*
X019902Y009094D02*
X02002D01*
X019961Y009035D02*
Y009154D01*
X014193Y012638D02*
X014311D01*
X014252Y012579D02*
Y012697D01*
X020199Y010411D02*
X020317D01*
X020258Y010352D02*
Y01047D01*
X015699Y008927D02*
X015817D01*
X015758Y008868D02*
Y008986D01*
X015571Y004331D02*
X015689D01*
X01563Y004272D02*
Y00439D01*
X015492Y007126D02*
X01561D01*
X015551Y007067D02*
Y007185D01*
X014902Y007126D02*
X01502D01*
X014961Y007067D02*
Y007185D01*
X020295Y004882D02*
X020413D01*
X020354Y004823D02*
Y004941D01*
X015216Y010551D02*
X015335D01*
X015276Y010492D02*
Y01061D01*
X012972Y010276D02*
X013091D01*
X013031Y010217D02*
Y010335D01*
X02065Y013898D02*
X020768D01*
X020709Y013839D02*
Y013957D01*
X020384Y018297D02*
X020502D01*
X020443Y018238D02*
Y018356D01*
X021398Y015354D02*
X021516D01*
X021457Y015295D02*
Y015413D01*
X021378Y014665D02*
X021496D01*
X021437Y014606D02*
Y014724D01*
X016496Y019035D02*
X016614D01*
X016555Y018976D02*
Y019094D01*
X017264Y019055D02*
X017382D01*
X017323Y018996D02*
Y019114D01*
X018051Y019055D02*
X018169D01*
X01811Y018996D02*
Y019114D01*
X018878Y018898D02*
X018996D01*
X018937Y018839D02*
Y018957D01*
X019311Y018386D02*
X019429D01*
X01937Y018327D02*
Y018445D01*
X019311Y017205D02*
X019429D01*
X01937Y017146D02*
Y017264D01*
X019311Y017795D02*
X019429D01*
X01937Y017736D02*
Y017854D01*
X019311Y016614D02*
X019429D01*
X01937Y016555D02*
Y016673D01*
X019311Y015827D02*
X019429D01*
X01937Y015768D02*
Y015886D01*
X018996Y015315D02*
X019114D01*
X019055Y015256D02*
Y015374D01*
X018327Y015276D02*
X018445D01*
X018386Y015217D02*
Y015335D01*
X017657Y015276D02*
X017776D01*
X017717Y015217D02*
Y015335D01*
X016831Y015276D02*
X016949D01*
X01689Y015217D02*
Y015335D01*
X015217Y015276D02*
X015335D01*
X015276Y015217D02*
Y015335D01*
X01439Y015276D02*
X014508D01*
X014449Y015217D02*
Y015335D01*
X01372Y015276D02*
X013839D01*
X01378Y015217D02*
Y015335D01*
X013051Y015315D02*
X013169D01*
X01311Y015256D02*
Y015374D01*
X012736Y015827D02*
X012854D01*
X012795Y015768D02*
Y015886D01*
X012736Y016614D02*
X012854D01*
X012795Y016555D02*
Y016673D01*
X012736Y017795D02*
X012854D01*
X012795Y017736D02*
Y017854D01*
X012736Y017205D02*
X012854D01*
X012795Y017146D02*
Y017264D01*
X012736Y018386D02*
X012854D01*
X012795Y018327D02*
Y018445D01*
X013169Y018898D02*
X013287D01*
X013228Y018839D02*
Y018957D01*
X013996Y019055D02*
X014114D01*
X014055Y018996D02*
Y019114D01*
X014783Y019055D02*
X014902D01*
X014843Y018996D02*
Y019114D01*
X022185Y011181D02*
X022303D01*
X022244Y011122D02*
Y01124D01*
X022185Y010394D02*
X022303D01*
X022244Y010335D02*
Y010453D01*
X022185Y009606D02*
X022303D01*
X022244Y009547D02*
Y009665D01*
X015551Y019035D02*
X015669D01*
X01561Y018976D02*
Y019094D01*
X029134Y011772D02*
X029252D01*
X029193Y011713D02*
Y011831D01*
X025236Y014075D02*
X025354D01*
X025295Y014016D02*
Y014134D01*
X026634Y016299D02*
X026752D01*
X026693Y01624D02*
Y016358D01*
X028406Y013465D02*
X028524D01*
X028465Y013406D02*
Y013524D01*
X030256Y016457D02*
X030374D01*
X030315Y016398D02*
Y016516D01*
X038128Y01748D02*
X038408D01*
X038268Y01734D02*
Y01762D01*
X037183Y01748D02*
X037463D01*
X037323Y01734D02*
Y01762D01*
X034978Y017559D02*
X035258D01*
X035118Y017419D02*
Y017699D01*
X034191Y017559D02*
X034471D01*
X034331Y017419D02*
Y017699D01*
X020846Y005394D02*
X020965D01*
X020906Y005335D02*
Y005453D01*
X024587Y000528D02*
X024705D01*
X024646Y000469D02*
Y000587D01*
X021043Y005866D02*
X021161D01*
X021102Y005807D02*
Y005925D01*
X025335Y000709D02*
X025453D01*
X025394Y00065D02*
Y000768D01*
X021043Y006339D02*
X021161D01*
X021102Y00628D02*
Y006398D01*
X026831Y001102D02*
X026949D01*
X02689Y001043D02*
Y001161D01*
X023268Y012972D02*
X023386D01*
X023327Y012913D02*
Y013031D01*
X019468Y012559D02*
X019587D01*
X019528Y0125D02*
Y012618D01*
X020797Y012195D02*
X020915D01*
X020856Y012136D02*
Y012254D01*
X031437Y015748D02*
X031555D01*
X031496Y015689D02*
Y015807D01*
X026201Y013701D02*
X026319D01*
X02626Y013642D02*
Y01376D01*
X032165Y015876D02*
X032283D01*
X032224Y015817D02*
Y015935D01*
X032165Y017126D02*
X032283D01*
X032224Y017067D02*
Y017185D01*
X00501Y01377D02*
X005128D01*
X005069Y013711D02*
Y013829D01*
M02*