%FSTAX24Y24*%
%MOIN*%
%SFA1B1*%

%IPPOS*%
%ADD16R,0.074800X0.074800*%
%ADD35C,0.039400*%
%ADD38C,0.003900*%
%ADD65R,0.063000X0.070900*%
%ADD66R,0.059100X0.070900*%
%ADD67R,0.070900X0.059100*%
%ADD68R,0.059100X0.082700*%
%ADD69R,0.114200X0.094500*%
%ADD70R,0.106300X0.035400*%
%ADD71R,0.090600X0.090600*%
%ADD72O,0.068900X0.031500*%
%ADD73O,0.039400X0.106300*%
%ADD74R,0.145700X0.110200*%
%ADD75R,0.055100X0.110200*%
%ADD76R,0.061000X0.039400*%
%ADD77R,0.047200X0.047200*%
%ADD78R,0.070900X0.063000*%
%ADD79R,0.039400X0.061000*%
%ADD80O,0.039400X0.102400*%
%ADD81R,0.232300X0.094500*%
%ADD82O,0.039400X0.090600*%
%ADD83R,0.145700X0.059100*%
%ADD84O,0.029500X0.082700*%
%ADD85O,0.070900X0.157500*%
%ADD86O,0.157500X0.070900*%
%ADD87C,0.039400*%
%ADD88C,0.074800*%
%ADD89C,0.078700*%
%ADD90R,0.078700X0.078700*%
%ADD91O,0.055100X0.094500*%
%ADD92R,0.055100X0.094500*%
%ADD93C,0.063000*%
%ADD94C,0.094500*%
%ADD95R,0.157500X0.157500*%
%ADD96O,0.057100X0.094500*%
%ADD97R,0.057100X0.094500*%
%ADD98C,0.141700*%
%ADD99C,0.133900*%
%ADD100C,0.488200*%
%ADD101R,0.074800X0.074800*%
%LNdummyv1-1*%
%LPD*%
G54D16*
X011772Y013622D03*
G54D35*
X019232Y018682D02*
D01*
X01917Y018739*
X019104Y018792*
X019035Y01884*
X018963Y018884*
X018888Y018922*
X01881Y018955*
X018731Y018982*
X018649Y019004*
X018566Y01902*
X018483Y019031*
X018399Y019035*
X018378Y019035*
X01937Y018347D02*
D01*
X019368Y018379*
X019365Y018412*
X019359Y018445*
X019351Y018477*
X019341Y018508*
X019329Y018539*
X019314Y018569*
X019298Y018597*
X019279Y018625*
X019259Y018651*
X019237Y018675*
X019232Y018682*
X019173Y015394D02*
D01*
X019204Y015428*
X019234Y015464*
X019261Y015503*
X019285Y015543*
X019306Y015585*
X019325Y015628*
X01934Y015672*
X019352Y015717*
X019361Y015763*
X019367Y01581*
X019369Y015857*
X01937Y015869*
X018888Y015276D02*
D01*
X018916Y015276*
X018944Y015279*
X018971Y015284*
X018999Y015291*
X019025Y0153*
X019051Y01531*
X019077Y015323*
X019101Y015337*
X019124Y015352*
X019147Y01537*
X019167Y015389*
X019173Y015394*
X012992D02*
D01*
X013012Y015374*
X013034Y015357*
X013057Y01534*
X013081Y015326*
X013106Y015313*
X013132Y015302*
X013159Y015293*
X013186Y015286*
X013213Y01528*
X013241Y015277*
X013269Y015276*
X013277Y015276*
X012795Y015869D02*
D01*
X012796Y015822*
X012801Y015775*
X012809Y015729*
X012821Y015683*
X012835Y015639*
X012853Y015595*
X012873Y015553*
X012897Y015512*
X012923Y015474*
X012952Y015437*
X012983Y015402*
X012992Y015394*
X012934Y018682D02*
D01*
X012911Y018657*
X01289Y018632*
X012871Y018605*
X012854Y018576*
X012839Y018547*
X012826Y018516*
X012815Y018485*
X012807Y018453*
X012801Y018421*
X012797Y018388*
X012795Y018355*
X012795Y018347*
X013787Y019035D02*
D01*
X013702Y019032*
X013619Y019023*
X013536Y019008*
X013454Y018988*
X013374Y018962*
X013296Y01893*
X01322Y018893*
X013147Y018851*
X013077Y018804*
X013011Y018752*
X012948Y018696*
X012934Y018682*
X015559Y019035D02*
X017382D01*
X016555D02*
X018378D01*
X01937Y015869D02*
Y018347D01*
X016811Y015276D02*
X018888D01*
X013277D02*
X015354D01*
X012795Y015869D02*
Y018347D01*
X013787Y019035D02*
X01561D01*
G54D38*
X0Y0D02*
Y019685D01*
X03937*
Y0D02*
Y019685D01*
X0Y0D02*
X03937D01*
G54D65*
X005886Y010768D03*
X005177D03*
X027333Y017539D03*
X028041D03*
X031535Y014931D03*
X030827D03*
X022087Y012441D03*
X021378D03*
X005866Y013228D03*
X005157D03*
X002441Y013819D03*
X001732D03*
X005157Y008425D03*
X005866D03*
Y007598D03*
X005157D03*
X007677Y001024D03*
X006969D03*
Y00189D03*
X007677D03*
X015Y002638D03*
X014291D03*
X021378Y013307D03*
X022087D03*
X020167Y016142D03*
X020876D03*
X030394Y017244D03*
X031102D03*
X026693Y015512D03*
X027402D03*
Y014685D03*
X026693D03*
X025827Y015512D03*
X025118D03*
G54D66*
X018681Y014341D03*
X019272D03*
X006634Y008031D03*
X007224D03*
X021122Y009606D03*
X021713D03*
X021122Y010394D03*
X021713D03*
X021122Y011181D03*
X021713D03*
X022736Y012441D03*
X023327D03*
X020266Y014665D03*
X020856D03*
X020266Y015354D03*
X020856D03*
X021969Y018701D03*
X021378D03*
X017106Y018504D03*
X016516D03*
X01502D03*
X01561D03*
X029193Y01252D03*
X029783D03*
Y013228D03*
X029193D03*
X025886Y014685D03*
X025295D03*
X007146Y014892D03*
X006555D03*
G54D67*
X029124Y017589D03*
Y016998D03*
X020443Y017165D03*
Y017756D03*
X032795Y007894D03*
Y007303D03*
G54D68*
X027323Y013022D03*
X02626D03*
G54D69*
X003044Y00847D03*
Y011974D03*
X000879D03*
Y00847D03*
G54D70*
X003083Y009592D03*
Y009907D03*
Y010222D03*
Y010537D03*
Y010852D03*
G54D71*
X000748Y009764D03*
Y010669D03*
G54D72*
X001801Y009705D03*
Y009961D03*
Y010217D03*
Y010472D03*
Y010728D03*
G54D73*
X013758Y009783D03*
X014258D03*
X014758D03*
X015258D03*
X015758D03*
X016258D03*
X016758D03*
X017258D03*
X017758D03*
X018258D03*
X018758D03*
X019258D03*
X019758D03*
X020258D03*
X013758Y013366D03*
X014258D03*
X014758D03*
X015258D03*
X015758D03*
X016258D03*
X016758D03*
X017258D03*
X017758D03*
X018258D03*
X018758D03*
X019258D03*
X019758D03*
X020258D03*
G54D74*
X007717Y018543D03*
G54D75*
X008622Y01626D03*
X007717D03*
X006811D03*
G54D76*
X005955Y012047D03*
X005069Y011673D03*
Y012421D03*
X021309Y017815D03*
Y017067D03*
X022195Y017441D03*
G54D77*
X003819Y013819D03*
X003189D03*
G54D78*
X008189Y005039D03*
Y005748D03*
X009567Y005039D03*
Y005748D03*
X010433Y005039D03*
Y005748D03*
X013091Y004193D03*
Y003484D03*
X016299Y003465D03*
Y004173D03*
X020315Y003504D03*
Y004213D03*
X02315Y00248D03*
Y001772D03*
X024646Y00248D03*
Y001772D03*
X02689Y00248D03*
Y001772D03*
X026142Y00248D03*
Y001772D03*
X022402Y00248D03*
Y001772D03*
X023898Y00248D03*
Y001772D03*
X025394Y00248D03*
Y001772D03*
X030866Y015748D03*
Y016457D03*
X03374Y016614D03*
Y017323D03*
G54D79*
X013996Y003543D03*
X014744D03*
X01437Y004429D03*
X017185Y003573D03*
X017933D03*
X017559Y004459D03*
X01872Y003573D03*
X019468D03*
X019094Y004459D03*
G54D80*
X025976Y005862D03*
X025476D03*
X024976D03*
X024476D03*
X023976D03*
X023476D03*
X022976D03*
X022476D03*
X025976Y003972D03*
X025476D03*
X024976D03*
X024476D03*
X023976D03*
X023476D03*
X022976D03*
X022476D03*
G54D81*
X017933Y01689D03*
X014193D03*
G54D82*
X029963Y016004D03*
X029463D03*
X028963D03*
X028463D03*
X029963Y014154D03*
X029463D03*
X028963D03*
X028463D03*
G54D83*
X03815Y01439D03*
Y016634D03*
G54D84*
X030404Y006516D03*
X030659D03*
X030915D03*
X031171D03*
X031427D03*
X031683D03*
X031939D03*
X032195D03*
X030404Y00876D03*
X030659D03*
X030915D03*
X031171D03*
X031427D03*
X031683D03*
X031939D03*
X032195D03*
G54D85*
X002825Y017667D03*
X005108D03*
G54D86*
X003927Y015778D03*
G54D87*
X00206Y011088D03*
Y009355D03*
G54D88*
X011772Y009622D03*
Y010622D03*
Y011622D03*
Y012622D03*
X026274Y010581D03*
G54D89*
X035764Y018543D03*
X034764D03*
G54D90*
X033764Y018543D03*
G54D91*
X030878Y019016D03*
X031378D03*
G54D92*
X031878Y019016D03*
G54D93*
X014567Y001575D03*
X015567D03*
X016567D03*
X017567D03*
X018567D03*
Y005575D03*
X017567D03*
X016567D03*
X015567D03*
X014567D03*
X019567D03*
G54D94*
X002559Y000787D03*
X004528D03*
X003543D03*
X004528Y006496D03*
X002559D03*
G54D95*
X005354Y00374D03*
X001732D03*
G54D96*
X010002Y003317D03*
X009502D03*
X008502D03*
G54D97*
X009002Y003317D03*
G54D98*
X037303Y006283D03*
Y008283D03*
G54D99*
X010709Y01878D03*
X01Y000906D03*
X038465Y01878D03*
Y000906D03*
G54D100*
X036142Y010512D03*
X036122Y004134D03*
G54D101*
X027274Y010581D03*
M02*