%FSTAX24Y24*%
%MOIN*%
%SFA1B1*%

%IPPOS*%
%ADD10R,0.047200X0.055100*%
%ADD11R,0.043300X0.055100*%
%ADD12R,0.055100X0.043300*%
%ADD13R,0.043300X0.066900*%
%ADD14R,0.098400X0.078700*%
%ADD15R,0.090600X0.019700*%
%ADD16R,0.074800X0.074800*%
%ADD17O,0.053200X0.015700*%
%ADD18O,0.023600X0.090600*%
%ADD19R,0.129900X0.094500*%
%ADD20R,0.039400X0.094500*%
%ADD21R,0.045300X0.023600*%
%ADD22R,0.031500X0.031500*%
%ADD23R,0.055100X0.047200*%
%ADD24R,0.023600X0.045300*%
%ADD25O,0.023600X0.086600*%
%ADD26R,0.216500X0.078700*%
%ADD27O,0.023600X0.074800*%
%ADD28R,0.129900X0.043300*%
%ADD29O,0.013800X0.066900*%
%ADD38C,0.003900*%
%LNdummyv1-1*%
%LPD*%
G54D10*
X005886Y010768D03*
X005177D03*
X027333Y017539D03*
X028041D03*
X031535Y014931D03*
X030827D03*
X022087Y012441D03*
X021378D03*
X005866Y013228D03*
X005157D03*
X002441Y013819D03*
X001732D03*
X005157Y008425D03*
X005866D03*
Y007598D03*
X005157D03*
X007677Y001024D03*
X006969D03*
Y00189D03*
X007677D03*
X015Y002638D03*
X014291D03*
X021378Y013307D03*
X022087D03*
X020167Y016142D03*
X020876D03*
X030394Y017244D03*
X031102D03*
X026693Y015512D03*
X027402D03*
Y014685D03*
X026693D03*
X025827Y015512D03*
X025118D03*
G54D11*
X018681Y014341D03*
X019272D03*
X006634Y008031D03*
X007224D03*
X021122Y009606D03*
X021713D03*
X021122Y010394D03*
X021713D03*
X021122Y011181D03*
X021713D03*
X022736Y012441D03*
X023327D03*
X020266Y014665D03*
X020856D03*
X020266Y015354D03*
X020856D03*
X021969Y018701D03*
X021378D03*
X017106Y018504D03*
X016516D03*
X01502D03*
X01561D03*
X029193Y01252D03*
X029783D03*
Y013228D03*
X029193D03*
X025886Y014685D03*
X025295D03*
X007146Y014892D03*
X006555D03*
G54D12*
X029124Y017589D03*
Y016998D03*
X020443Y017165D03*
Y017756D03*
X032795Y007894D03*
Y007303D03*
G54D13*
X027323Y013022D03*
X02626D03*
G54D14*
X003044Y00847D03*
Y011974D03*
X000879D03*
Y00847D03*
G54D15*
X003083Y009592D03*
Y009907D03*
Y010222D03*
Y010537D03*
Y010852D03*
G54D16*
X000748Y009764D03*
Y010669D03*
G54D17*
X001801Y009705D03*
Y009961D03*
Y010217D03*
Y010472D03*
Y010728D03*
G54D18*
X013758Y009783D03*
X014258D03*
X014758D03*
X015258D03*
X015758D03*
X016258D03*
X016758D03*
X017258D03*
X017758D03*
X018258D03*
X018758D03*
X019258D03*
X019758D03*
X020258D03*
X013758Y013366D03*
X014258D03*
X014758D03*
X015258D03*
X015758D03*
X016258D03*
X016758D03*
X017258D03*
X017758D03*
X018258D03*
X018758D03*
X019258D03*
X019758D03*
X020258D03*
G54D19*
X007717Y018543D03*
G54D20*
X008622Y01626D03*
X007717D03*
X006811D03*
G54D21*
X005955Y012047D03*
X005069Y011673D03*
Y012421D03*
X021309Y017815D03*
Y017067D03*
X022195Y017441D03*
G54D22*
X003819Y013819D03*
X003189D03*
G54D23*
X008189Y005039D03*
Y005748D03*
X009567Y005039D03*
Y005748D03*
X010433Y005039D03*
Y005748D03*
X013091Y004193D03*
Y003484D03*
X016299Y003465D03*
Y004173D03*
X020315Y003504D03*
Y004213D03*
X02315Y00248D03*
Y001772D03*
X024646Y00248D03*
Y001772D03*
X02689Y00248D03*
Y001772D03*
X026142Y00248D03*
Y001772D03*
X022402Y00248D03*
Y001772D03*
X023898Y00248D03*
Y001772D03*
X025394Y00248D03*
Y001772D03*
X030866Y015748D03*
Y016457D03*
X03374Y016614D03*
Y017323D03*
G54D24*
X013996Y003543D03*
X014744D03*
X01437Y004429D03*
X017185Y003573D03*
X017933D03*
X017559Y004459D03*
X01872Y003573D03*
X019468D03*
X019094Y004459D03*
G54D25*
X025976Y005862D03*
X025476D03*
X024976D03*
X024476D03*
X023976D03*
X023476D03*
X022976D03*
X022476D03*
X025976Y003972D03*
X025476D03*
X024976D03*
X024476D03*
X023976D03*
X023476D03*
X022976D03*
X022476D03*
G54D26*
X017933Y01689D03*
X014193D03*
G54D27*
X029963Y016004D03*
X029463D03*
X028963D03*
X028463D03*
X029963Y014154D03*
X029463D03*
X028963D03*
X028463D03*
G54D28*
X03815Y01439D03*
Y016634D03*
G54D29*
X030404Y006516D03*
X030659D03*
X030915D03*
X031171D03*
X031427D03*
X031683D03*
X031939D03*
X032195D03*
X030404Y00876D03*
X030659D03*
X030915D03*
X031171D03*
X031427D03*
X031683D03*
X031939D03*
X032195D03*
G54D38*
X0Y0D02*
Y019685D01*
X03937*
Y0D02*
Y019685D01*
X0Y0D02*
X03937D01*
M02*