%FSTAX24Y24*%
%MOIN*%
%SFA1B1*%

%IPPOS*%
%ADD38C,0.003900*%
%ADD62C,0.007900*%
%LNdummyv1-1*%
%LPD*%
G54D38*
X0Y0D02*
Y019685D01*
X03937*
Y0D02*
Y019685D01*
X0Y0D02*
X03937D01*
G54D62*
X028504Y002047D02*
Y001785D01*
X028373Y001654*
X028242Y001785*
Y002047*
X027848D02*
X02811D01*
Y001654*
X027848*
X02811Y00185D02*
X027979D01*
X027717Y001654D02*
Y002047D01*
X02752*
X027454Y001982*
Y00185*
X02752Y001785*
X027717*
X027586D02*
X027454Y001654D01*
X027061Y001982D02*
X027126Y002047D01*
X027258*
X027323Y001982*
Y001916*
X027258Y00185*
X027126*
X027061Y001785*
Y001719*
X027126Y001654*
X027258*
X027323Y001719*
X02693Y002047D02*
X026798D01*
X026864*
Y001654*
X02693*
X026798*
X026405Y002047D02*
X026536D01*
X026602Y001982*
Y001719*
X026536Y001654*
X026405*
X026339Y001719*
Y001982*
X026405Y002047*
X026208Y001654D02*
Y002047D01*
X025946Y001654*
Y002047*
X025815Y001916D02*
X025749D01*
Y00185*
X025815*
Y001916*
Y001719D02*
X025749D01*
Y001654*
X025815*
Y001719*
X024831Y001654D02*
X025093D01*
X024831Y001916*
Y001982*
X024896Y002047*
X025027*
X025093Y001982*
X024699Y001654D02*
Y001719D01*
X024634*
Y001654*
X024699*
X024371D02*
X02424D01*
X024306*
Y002047*
X024371Y001982*
X028504Y002756D02*
X028242D01*
X028373*
Y002362*
X02811D02*
Y002756D01*
X027914*
X027848Y00269*
Y002559*
X027914Y002493*
X02811*
X027979D02*
X027848Y002362D01*
X027717Y002756D02*
X027586D01*
X027651*
Y002362*
X027717*
X027586*
X027126Y00269D02*
X027192Y002756D01*
X027323*
X027389Y00269*
Y002428*
X027323Y002362*
X027192*
X027126Y002428*
Y002559*
X027258*
X026733Y00269D02*
X026798Y002756D01*
X02693*
X026995Y00269*
Y002428*
X02693Y002362*
X026798*
X026733Y002428*
Y002559*
X026864*
X026339Y002756D02*
X026602D01*
Y002362*
X026339*
X026602Y002559D02*
X02647D01*
X026208Y002362D02*
Y002756D01*
X026011*
X025946Y00269*
Y002559*
X026011Y002493*
X026208*
X026077D02*
X025946Y002362D01*
X025815D02*
Y002756D01*
X025618*
X025552Y00269*
Y002559*
X025618Y002493*
X025815*
X025683D02*
X025552Y002362D01*
X025027Y002559D02*
X024765D01*
X02424Y002756D02*
Y002362D01*
X024109Y002493*
X023978Y002362*
Y002756*
X023584D02*
X023847D01*
Y002362*
X023584*
X023847Y002559D02*
X023715D01*
X023191Y00269D02*
X023256Y002756D01*
X023387*
X023453Y00269*
Y002625*
X023387Y002559*
X023256*
X023191Y002493*
Y002428*
X023256Y002362*
X023387*
X023453Y002428*
X022863Y002756D02*
X022994D01*
X023059Y00269*
Y002428*
X022994Y002362*
X022863*
X022797Y002428*
Y00269*
X022863Y002756*
X028504Y003425D02*
Y003031D01*
X028307*
X028242Y003097*
Y003359*
X028307Y003425*
X028504*
X02811D02*
Y003097D01*
X028045Y003031*
X027914*
X027848Y003097*
Y003425*
X027717Y003031D02*
Y003425D01*
X027586Y003294*
X027454Y003425*
Y003031*
X027323D02*
Y003425D01*
X027192Y003294*
X027061Y003425*
Y003031*
X02693Y003425D02*
Y003359D01*
X026798Y003228*
X026667Y003359*
Y003425*
X026798Y003228D02*
Y003031D01*
X026142Y003425D02*
Y003031D01*
X02588*
X025552Y003425D02*
X025683D01*
X025749Y003359*
Y003097*
X025683Y003031*
X025552*
X025487Y003097*
Y003359*
X025552Y003425*
X025355Y003031D02*
Y003294D01*
X025224Y003425*
X025093Y003294*
Y003031*
Y003228*
X025355*
X024962Y003425D02*
Y003031D01*
X024765*
X024699Y003097*
Y003359*
X024765Y003425*
X024962*
M02*