%FSTAX24Y24*%
%MOIN*%
%SFA1B1*%

%IPPOS*%
%ADD30C,0.019700*%
%ADD31C,0.023600*%
%ADD33C,0.015700*%
%ADD37C,0.011800*%
%ADD38C,0.003900*%
%ADD61C,0.009800*%
%ADD62C,0.007900*%
%ADD63C,0.010000*%
%ADD64C,0.005000*%
%LNdummyv1-1*%
%LPD*%
G54D30*
X012567Y006475D02*
X021667D01*
Y000675D02*
Y006475D01*
X012567Y000675D02*
X021667D01*
X012567D02*
Y006475D01*
X001142Y000827D02*
X005748D01*
X005945*
Y00626*
Y006417*
X001102D02*
X005945D01*
X001102Y000827D02*
Y006417D01*
X030217Y000492D02*
X031398D01*
Y001279*
X030217Y002263D02*
Y00187D01*
X030414Y001673*
X031201*
X031398Y00187*
Y002263*
X031201Y00246*
X030414*
X030217Y002263*
X031398Y002854D02*
X03061D01*
X030217Y003247*
X03061Y003641*
X031398*
X030807*
Y002854*
X030217Y004034D02*
X031398D01*
Y004625*
X031201Y004821*
X030414*
X030217Y004625*
Y004034*
X033426Y000906D02*
Y002217D01*
X032776Y01309D02*
X034088D01*
X033432Y013746D02*
Y012434D01*
G54D31*
X020295Y012362D02*
D01*
X020294Y01237*
X020293Y012378*
X020292Y012386*
X02029Y012394*
X020287Y012402*
X020284Y012409*
X020281Y012417*
X020277Y012424*
X020272Y012431*
X020267Y012437*
X020261Y012443*
X020255Y012449*
X020249Y012454*
X020242Y012459*
X020236Y012464*
X020228Y012468*
X020221Y012471*
X020213Y012474*
X020205Y012476*
X020197Y012478*
X020189Y012479*
X020181Y012479*
X020172*
X020164Y012479*
X020156Y012478*
X020148Y012476*
X02014Y012474*
X020132Y012471*
X020125Y012468*
X020118Y012464*
X020111Y012459*
X020104Y012454*
X020098Y012449*
X020092Y012443*
X020086Y012437*
X020081Y012431*
X020076Y012424*
X020072Y012417*
X020069Y012409*
X020066Y012402*
X020063Y012394*
X020061Y012386*
X02006Y012378*
X020059Y01237*
X020059Y012362*
X020059Y012353*
X02006Y012345*
X020061Y012337*
X020063Y012329*
X020066Y012321*
X020069Y012314*
X020072Y012306*
X020076Y012299*
X020081Y012292*
X020086Y012286*
X020092Y01228*
X020098Y012274*
X020104Y012269*
X020111Y012264*
X020118Y012259*
X020125Y012255*
X020132Y012252*
X02014Y012249*
X020148Y012247*
X020156Y012245*
X020164Y012244*
X020172Y012244*
X020181*
X020189Y012244*
X020197Y012245*
X020205Y012247*
X020213Y012249*
X020221Y012252*
X020228Y012255*
X020236Y012259*
X020242Y012264*
X020249Y012269*
X020255Y012274*
X020261Y01228*
X020267Y012286*
X020272Y012292*
X020277Y012299*
X020281Y012306*
X020284Y012314*
X020287Y012321*
X02029Y012329*
X020292Y012337*
X020293Y012345*
X020294Y012353*
X020295Y012362*
X030807Y007402D02*
D01*
X030806Y00741*
X030805Y007418*
X030804Y007426*
X030802Y007434*
X030799Y007442*
X030796Y007449*
X030793Y007457*
X030789Y007464*
X030784Y007471*
X030779Y007477*
X030773Y007483*
X030767Y007489*
X030761Y007494*
X030754Y007499*
X030748Y007504*
X03074Y007508*
X030733Y007511*
X030725Y007514*
X030717Y007516*
X030709Y007518*
X030701Y007519*
X030693Y007519*
X030684*
X030676Y007519*
X030668Y007518*
X03066Y007516*
X030652Y007514*
X030644Y007511*
X030637Y007508*
X03063Y007504*
X030623Y007499*
X030616Y007494*
X03061Y007489*
X030604Y007483*
X030598Y007477*
X030593Y007471*
X030588Y007464*
X030584Y007457*
X030581Y007449*
X030578Y007442*
X030575Y007434*
X030573Y007426*
X030572Y007418*
X030571Y00741*
X030571Y007402*
X030571Y007393*
X030572Y007385*
X030573Y007377*
X030575Y007369*
X030578Y007361*
X030581Y007354*
X030584Y007346*
X030588Y007339*
X030593Y007332*
X030598Y007326*
X030604Y00732*
X03061Y007314*
X030616Y007309*
X030623Y007304*
X03063Y007299*
X030637Y007295*
X030644Y007292*
X030652Y007289*
X03066Y007287*
X030668Y007285*
X030676Y007284*
X030684Y007284*
X030693*
X030701Y007284*
X030709Y007285*
X030717Y007287*
X030725Y007289*
X030733Y007292*
X03074Y007295*
X030748Y007299*
X030754Y007304*
X030761Y007309*
X030767Y007314*
X030773Y00732*
X030779Y007326*
X030784Y007332*
X030789Y007339*
X030793Y007346*
X030796Y007354*
X030799Y007361*
X030802Y007369*
X030804Y007377*
X030805Y007385*
X030806Y007393*
X030807Y007402*
G54D33*
X034154Y015059D02*
Y014272D01*
Y014665*
X034678*
Y015059*
Y014272*
X035465Y015059D02*
X034941D01*
Y014272*
X035465*
X034941Y014665D02*
X035203D01*
X035728Y014272D02*
Y014796D01*
X03599Y015059*
X036253Y014796*
Y014272*
Y014665*
X035728*
X036515Y015059D02*
X03704D01*
X036777*
Y014272*
G54D37*
X022146Y003051D02*
D01*
X022132Y00305*
X022118Y003049*
X022105Y003046*
X022091Y003043*
X022078Y003039*
X022065Y003033*
X022053Y003027*
X022041Y003021*
X02203Y003013*
X022019Y003004*
X022009Y002995*
X021999Y002985*
X02199Y002975*
X021982Y002964*
X021975Y002952*
X021968Y00294*
X021963Y002927*
X021958Y002914*
X021954Y002901*
X021951Y002888*
X02195Y002874*
X021949Y00286*
X021949Y002854*
Y001378D02*
D01*
X021949Y001364*
X02195Y00135*
X021953Y001337*
X021956Y001323*
X02196Y00131*
X021966Y001297*
X021972Y001285*
X021978Y001273*
X021986Y001262*
X021995Y001251*
X022004Y001241*
X022014Y001231*
X022024Y001222*
X022035Y001214*
X022047Y001207*
X022059Y0012*
X022072Y001195*
X022085Y00119*
X022098Y001186*
X022111Y001183*
X022125Y001182*
X022139Y001181*
X022146Y001181*
X027165D02*
D01*
X027178Y001181*
X027192Y001182*
X027205Y001185*
X027219Y001188*
X027232Y001192*
X027245Y001198*
X027257Y001204*
X027269Y00121*
X02728Y001218*
X027291Y001227*
X027301Y001236*
X027311Y001246*
X02732Y001256*
X027328Y001267*
X027335Y001279*
X027342Y001291*
X027347Y001304*
X027352Y001317*
X027356Y00133*
X027359Y001343*
X02736Y001357*
X027361Y001371*
X027362Y001378*
Y002854D02*
D01*
X027361Y002867*
X02736Y002881*
X027357Y002894*
X027354Y002908*
X02735Y002921*
X027344Y002934*
X027338Y002946*
X027332Y002958*
X027324Y002969*
X027315Y00298*
X027306Y00299*
X027296Y003*
X027286Y003009*
X027275Y003017*
X027263Y003024*
X027251Y003031*
X027238Y003036*
X027225Y003041*
X027212Y003045*
X027199Y003048*
X027185Y003049*
X027171Y00305*
X027165Y003051*
X021339Y007362D02*
X022953D01*
X023228Y007638*
X023504Y007087*
X02378Y007638*
X024055Y007087*
X024331Y007638D02*
X024606Y007087D01*
X024055D02*
X024331Y007638D01*
X024882D02*
X025157Y007087D01*
X024606D02*
X024882Y007638D01*
X025157Y007087D02*
X025315Y007441D01*
X027323*
X027756*
X028268Y00811*
X02939Y000039D02*
Y011043D01*
X03252Y014173*
Y019636*
X005541Y014272D02*
Y015157D01*
X002756D02*
X005541D01*
X002756Y014272D02*
Y015157D01*
X004331Y014272D02*
X005541D01*
X004331Y013386D02*
Y014272D01*
X002756Y013386D02*
X004331D01*
X002756D02*
Y014272D01*
X021949Y001378D02*
Y002854D01*
X022146Y001181D02*
X027165D01*
X027362Y001378D02*
Y002854D01*
X022146Y003051D02*
X027165D01*
X035531Y016535D02*
Y016634D01*
Y016142D02*
Y016339D01*
Y015551D02*
Y016142D01*
X03435Y015354D02*
X035531Y017126D01*
X036713Y015354*
X03435D02*
X036713D01*
X038386Y005283D02*
X039232D01*
X038287Y009283D02*
X039232D01*
X035256Y006496D02*
Y008169D01*
X039232Y005283D02*
Y009283D01*
X031903Y00189D02*
X031772Y002021D01*
Y002283*
X031903Y002415*
X032428*
X032559Y002283*
Y002021*
X032428Y00189*
X031903*
X032165Y002677D02*
Y003202D01*
X031903Y003464D02*
X031772Y003595D01*
Y003858*
X031903Y003989*
X032034*
X032165Y003858*
Y003726*
Y003858*
X032297Y003989*
X032428*
X032559Y003858*
Y003595*
X032428Y003464*
X032559Y004251D02*
X032034D01*
X031772Y004514*
X032034Y004776*
X032559*
X032165*
Y004251*
X021811Y008425D02*
Y007835D01*
X022106*
X022205Y007933*
Y008327*
X022106Y008425*
X021811*
X022401D02*
Y007933D01*
X0225Y007835*
X022697*
X022795Y007933*
Y008425*
X022992Y007835D02*
Y008425D01*
X023189Y008228*
X023385Y008425*
Y007835*
X023582D02*
Y008425D01*
X023779Y008228*
X023976Y008425*
Y007835*
X024172Y008425D02*
Y008327D01*
X024369Y00813*
X024566Y008327*
Y008425*
X024369Y00813D02*
Y007835D01*
X025353Y008425D02*
Y007835D01*
X025747*
X026239Y008425D02*
X026042D01*
X025944Y008327*
Y007933*
X026042Y007835*
X026239*
X026337Y007933*
Y008327*
X026239Y008425*
X026534Y007835D02*
Y008228D01*
X026731Y008425*
X026927Y008228*
Y007835*
Y00813*
X026534*
X027124Y008425D02*
Y007835D01*
X027419*
X027518Y007933*
Y008327*
X027419Y008425*
X027124*
G54D38*
X003927Y016335D02*
X00396Y016368D01*
X004026*
X004058Y016335*
Y016302*
X004026Y01627*
X003993*
X004026*
X004058Y016237*
Y016204*
X004026Y016171*
X00396*
X003927Y016204*
X00335Y017589D02*
X003219D01*
X00335Y01772*
Y017753*
X003317Y017785*
X003251*
X003219Y017753*
X004636Y017589D02*
X004701D01*
X004669*
Y017785*
X004636Y017753*
X0Y0D02*
Y019685D01*
X03937*
Y0D02*
Y019685D01*
X0Y0D02*
X03937D01*
G54D61*
X003802Y010852D02*
D01*
X003801Y010855*
X003801Y010858*
X0038Y010862*
X0038Y010865*
X003799Y010868*
X003797Y010871*
X003796Y010875*
X003794Y010877*
X003792Y01088*
X00379Y010883*
X003788Y010886*
X003785Y010888*
X003783Y01089*
X00378Y010892*
X003777Y010894*
X003774Y010896*
X003771Y010897*
X003768Y010898*
X003764Y010899*
X003761Y0109*
X003758Y0109*
X003754Y0109*
X003751*
X003747Y0109*
X003744Y0109*
X003741Y010899*
X003737Y010898*
X003734Y010897*
X003731Y010896*
X003728Y010894*
X003725Y010892*
X003722Y01089*
X00372Y010888*
X003717Y010886*
X003715Y010883*
X003713Y01088*
X003711Y010877*
X003709Y010875*
X003708Y010871*
X003706Y010868*
X003705Y010865*
X003705Y010862*
X003704Y010858*
X003704Y010855*
X003704Y010852*
X003704Y010848*
X003704Y010845*
X003705Y010841*
X003705Y010838*
X003706Y010835*
X003708Y010832*
X003709Y010828*
X003711Y010826*
X003713Y010823*
X003715Y01082*
X003717Y010817*
X00372Y010815*
X003722Y010813*
X003725Y010811*
X003728Y010809*
X003731Y010807*
X003734Y010806*
X003737Y010805*
X003741Y010804*
X003744Y010803*
X003747Y010803*
X003751Y010803*
X003754*
X003758Y010803*
X003761Y010803*
X003764Y010804*
X003768Y010805*
X003771Y010806*
X003774Y010807*
X003777Y010809*
X00378Y010811*
X003783Y010813*
X003785Y010815*
X003788Y010817*
X00379Y01082*
X003792Y010823*
X003794Y010826*
X003796Y010828*
X003797Y010832*
X003799Y010835*
X0038Y010838*
X0038Y010841*
X003801Y010845*
X003801Y010848*
X003802Y010852*
X020642Y013366D02*
D01*
X020641Y013369*
X020641Y013372*
X02064Y013376*
X02064Y013379*
X020639Y013382*
X020637Y013385*
X020636Y013389*
X020634Y013391*
X020632Y013394*
X02063Y013397*
X020628Y0134*
X020625Y013402*
X020623Y013404*
X02062Y013406*
X020617Y013408*
X020614Y01341*
X020611Y013411*
X020608Y013412*
X020604Y013413*
X020601Y013414*
X020598Y013414*
X020594Y013414*
X020591*
X020587Y013414*
X020584Y013414*
X020581Y013413*
X020577Y013412*
X020574Y013411*
X020571Y01341*
X020568Y013408*
X020565Y013406*
X020562Y013404*
X02056Y013402*
X020557Y0134*
X020555Y013397*
X020553Y013394*
X020551Y013391*
X020549Y013389*
X020548Y013385*
X020546Y013382*
X020545Y013379*
X020545Y013376*
X020544Y013372*
X020544Y013369*
X020544Y013366*
X020544Y013362*
X020544Y013359*
X020545Y013355*
X020545Y013352*
X020546Y013349*
X020548Y013346*
X020549Y013342*
X020551Y01334*
X020553Y013337*
X020555Y013334*
X020557Y013331*
X02056Y013329*
X020562Y013327*
X020565Y013325*
X020568Y013323*
X020571Y013321*
X020574Y01332*
X020577Y013319*
X020581Y013318*
X020584Y013317*
X020587Y013317*
X020591Y013317*
X020594*
X020598Y013317*
X020601Y013317*
X020604Y013318*
X020608Y013319*
X020611Y01332*
X020614Y013321*
X020617Y013323*
X02062Y013325*
X020623Y013327*
X020625Y013329*
X020628Y013331*
X02063Y013334*
X020632Y013337*
X020634Y01334*
X020636Y013342*
X020637Y013346*
X020639Y013349*
X02064Y013352*
X02064Y013355*
X020641Y013359*
X020641Y013362*
X020642Y013366*
X006447Y01626D02*
D01*
X006446Y016263*
X006446Y016266*
X006445Y01627*
X006445Y016273*
X006444Y016276*
X006442Y016279*
X006441Y016283*
X006439Y016285*
X006437Y016288*
X006435Y016291*
X006433Y016294*
X00643Y016296*
X006428Y016298*
X006425Y0163*
X006422Y016302*
X006419Y016304*
X006416Y016305*
X006413Y016306*
X006409Y016307*
X006406Y016308*
X006403Y016308*
X006399Y016308*
X006396*
X006392Y016308*
X006389Y016308*
X006386Y016307*
X006382Y016306*
X006379Y016305*
X006376Y016304*
X006373Y016302*
X00637Y0163*
X006367Y016298*
X006365Y016296*
X006362Y016294*
X00636Y016291*
X006358Y016288*
X006356Y016285*
X006354Y016283*
X006353Y016279*
X006351Y016276*
X00635Y016273*
X00635Y01627*
X006349Y016266*
X006349Y016263*
X006349Y01626*
X006349Y016256*
X006349Y016253*
X00635Y016249*
X00635Y016246*
X006351Y016243*
X006353Y01624*
X006354Y016236*
X006356Y016234*
X006358Y016231*
X00636Y016228*
X006362Y016225*
X006365Y016223*
X006367Y016221*
X00637Y016219*
X006373Y016217*
X006376Y016215*
X006379Y016214*
X006382Y016213*
X006386Y016212*
X006389Y016211*
X006392Y016211*
X006396Y016211*
X006399*
X006403Y016211*
X006406Y016211*
X006409Y016212*
X006413Y016213*
X006416Y016214*
X006419Y016215*
X006422Y016217*
X006425Y016219*
X006428Y016221*
X00643Y016223*
X006433Y016225*
X006435Y016228*
X006437Y016231*
X006439Y016234*
X006441Y016236*
X006442Y01624*
X006444Y016243*
X006445Y016246*
X006445Y016249*
X006446Y016253*
X006446Y016256*
X006447Y01626*
X006093Y012382D02*
D01*
X006092Y012385*
X006092Y012388*
X006091Y012392*
X006091Y012395*
X00609Y012398*
X006088Y012401*
X006087Y012405*
X006085Y012407*
X006083Y01241*
X006081Y012413*
X006079Y012416*
X006076Y012418*
X006074Y01242*
X006071Y012422*
X006068Y012424*
X006065Y012426*
X006062Y012427*
X006059Y012428*
X006055Y012429*
X006052Y01243*
X006049Y01243*
X006045Y01243*
X006042*
X006038Y01243*
X006035Y01243*
X006032Y012429*
X006028Y012428*
X006025Y012427*
X006022Y012426*
X006019Y012424*
X006016Y012422*
X006013Y01242*
X006011Y012418*
X006008Y012416*
X006006Y012413*
X006004Y01241*
X006002Y012407*
X006Y012405*
X005999Y012401*
X005997Y012398*
X005996Y012395*
X005996Y012392*
X005995Y012388*
X005995Y012385*
X005995Y012382*
X005995Y012378*
X005995Y012375*
X005996Y012371*
X005996Y012368*
X005997Y012365*
X005999Y012362*
X006Y012358*
X006002Y012356*
X006004Y012353*
X006006Y01235*
X006008Y012347*
X006011Y012345*
X006013Y012343*
X006016Y012341*
X006019Y012339*
X006022Y012337*
X006025Y012336*
X006028Y012335*
X006032Y012334*
X006035Y012333*
X006038Y012333*
X006042Y012333*
X006045*
X006049Y012333*
X006052Y012333*
X006055Y012334*
X006059Y012335*
X006062Y012336*
X006065Y012337*
X006068Y012339*
X006071Y012341*
X006074Y012343*
X006076Y012345*
X006079Y012347*
X006081Y01235*
X006083Y012353*
X006085Y012356*
X006087Y012358*
X006088Y012362*
X00609Y012365*
X006091Y012368*
X006091Y012371*
X006092Y012375*
X006092Y012378*
X006093Y012382*
X013711Y003543D02*
D01*
X01371Y003546*
X01371Y003549*
X013709Y003553*
X013709Y003556*
X013708Y003559*
X013706Y003562*
X013705Y003566*
X013703Y003568*
X013701Y003571*
X013699Y003574*
X013697Y003577*
X013694Y003579*
X013692Y003581*
X013689Y003583*
X013686Y003585*
X013683Y003587*
X01368Y003588*
X013677Y003589*
X013673Y00359*
X01367Y003591*
X013667Y003591*
X013663Y003591*
X01366*
X013656Y003591*
X013653Y003591*
X01365Y00359*
X013646Y003589*
X013643Y003588*
X01364Y003587*
X013637Y003585*
X013634Y003583*
X013631Y003581*
X013629Y003579*
X013626Y003577*
X013624Y003574*
X013622Y003571*
X01362Y003568*
X013618Y003566*
X013617Y003562*
X013615Y003559*
X013614Y003556*
X013614Y003553*
X013613Y003549*
X013613Y003546*
X013613Y003543*
X013613Y003539*
X013613Y003536*
X013614Y003532*
X013614Y003529*
X013615Y003526*
X013617Y003523*
X013618Y003519*
X01362Y003517*
X013622Y003514*
X013624Y003511*
X013626Y003508*
X013629Y003506*
X013631Y003504*
X013634Y003502*
X013637Y0035*
X01364Y003498*
X013643Y003497*
X013646Y003496*
X01365Y003495*
X013653Y003494*
X013656Y003494*
X01366Y003494*
X013663*
X013667Y003494*
X01367Y003494*
X013673Y003495*
X013677Y003496*
X01368Y003497*
X013683Y003498*
X013686Y0035*
X013689Y003502*
X013692Y003504*
X013694Y003506*
X013697Y003508*
X013699Y003511*
X013701Y003514*
X013703Y003517*
X013705Y003519*
X013706Y003523*
X013708Y003526*
X013709Y003529*
X013709Y003532*
X01371Y003536*
X01371Y003539*
X013711Y003543*
X0169Y003573D02*
D01*
X016899Y003576*
X016899Y003579*
X016898Y003583*
X016898Y003586*
X016897Y003589*
X016895Y003592*
X016894Y003596*
X016892Y003598*
X01689Y003601*
X016888Y003604*
X016886Y003607*
X016883Y003609*
X016881Y003611*
X016878Y003613*
X016875Y003615*
X016872Y003617*
X016869Y003618*
X016866Y003619*
X016862Y00362*
X016859Y003621*
X016856Y003621*
X016852Y003621*
X016849*
X016845Y003621*
X016842Y003621*
X016839Y00362*
X016835Y003619*
X016832Y003618*
X016829Y003617*
X016826Y003615*
X016823Y003613*
X01682Y003611*
X016818Y003609*
X016815Y003607*
X016813Y003604*
X016811Y003601*
X016809Y003598*
X016807Y003596*
X016806Y003592*
X016804Y003589*
X016803Y003586*
X016803Y003583*
X016802Y003579*
X016802Y003576*
X016802Y003573*
X016802Y003569*
X016802Y003566*
X016803Y003562*
X016803Y003559*
X016804Y003556*
X016806Y003553*
X016807Y003549*
X016809Y003547*
X016811Y003544*
X016813Y003541*
X016815Y003538*
X016818Y003536*
X01682Y003534*
X016823Y003532*
X016826Y00353*
X016829Y003528*
X016832Y003527*
X016835Y003526*
X016839Y003525*
X016842Y003524*
X016845Y003524*
X016849Y003524*
X016852*
X016856Y003524*
X016859Y003524*
X016862Y003525*
X016866Y003526*
X016869Y003527*
X016872Y003528*
X016875Y00353*
X016878Y003532*
X016881Y003534*
X016883Y003536*
X016886Y003538*
X016888Y003541*
X01689Y003544*
X016892Y003547*
X016894Y003549*
X016895Y003553*
X016897Y003556*
X016898Y003559*
X016898Y003562*
X016899Y003566*
X016899Y003569*
X0169Y003573*
X018435D02*
D01*
X018434Y003576*
X018434Y003579*
X018433Y003583*
X018433Y003586*
X018432Y003589*
X01843Y003592*
X018429Y003596*
X018427Y003598*
X018425Y003601*
X018423Y003604*
X018421Y003607*
X018418Y003609*
X018416Y003611*
X018413Y003613*
X01841Y003615*
X018407Y003617*
X018404Y003618*
X018401Y003619*
X018397Y00362*
X018394Y003621*
X018391Y003621*
X018387Y003621*
X018384*
X01838Y003621*
X018377Y003621*
X018374Y00362*
X01837Y003619*
X018367Y003618*
X018364Y003617*
X018361Y003615*
X018358Y003613*
X018355Y003611*
X018353Y003609*
X01835Y003607*
X018348Y003604*
X018346Y003601*
X018344Y003598*
X018342Y003596*
X018341Y003592*
X018339Y003589*
X018338Y003586*
X018338Y003583*
X018337Y003579*
X018337Y003576*
X018337Y003573*
X018337Y003569*
X018337Y003566*
X018338Y003562*
X018338Y003559*
X018339Y003556*
X018341Y003553*
X018342Y003549*
X018344Y003547*
X018346Y003544*
X018348Y003541*
X01835Y003538*
X018353Y003536*
X018355Y003534*
X018358Y003532*
X018361Y00353*
X018364Y003528*
X018367Y003527*
X01837Y003526*
X018374Y003525*
X018377Y003524*
X01838Y003524*
X018384Y003524*
X018387*
X018391Y003524*
X018394Y003524*
X018397Y003525*
X018401Y003526*
X018404Y003527*
X018407Y003528*
X01841Y00353*
X018413Y003532*
X018416Y003534*
X018418Y003536*
X018421Y003538*
X018423Y003541*
X018425Y003544*
X018427Y003547*
X018429Y003549*
X01843Y003553*
X018432Y003556*
X018433Y003559*
X018433Y003562*
X018434Y003566*
X018434Y003569*
X018435Y003573*
X02636Y005862D02*
D01*
X026359Y005865*
X026359Y005868*
X026358Y005872*
X026358Y005875*
X026357Y005878*
X026355Y005881*
X026354Y005885*
X026352Y005887*
X02635Y00589*
X026348Y005893*
X026346Y005896*
X026343Y005898*
X026341Y0059*
X026338Y005902*
X026335Y005904*
X026332Y005906*
X026329Y005907*
X026326Y005908*
X026322Y005909*
X026319Y00591*
X026316Y00591*
X026312Y00591*
X026309*
X026305Y00591*
X026302Y00591*
X026299Y005909*
X026295Y005908*
X026292Y005907*
X026289Y005906*
X026286Y005904*
X026283Y005902*
X02628Y0059*
X026278Y005898*
X026275Y005896*
X026273Y005893*
X026271Y00589*
X026269Y005887*
X026267Y005885*
X026266Y005881*
X026264Y005878*
X026263Y005875*
X026263Y005872*
X026262Y005868*
X026262Y005865*
X026262Y005862*
X026262Y005858*
X026262Y005855*
X026263Y005851*
X026263Y005848*
X026264Y005845*
X026266Y005842*
X026267Y005838*
X026269Y005836*
X026271Y005833*
X026273Y00583*
X026275Y005827*
X026278Y005825*
X02628Y005823*
X026283Y005821*
X026286Y005819*
X026289Y005817*
X026292Y005816*
X026295Y005815*
X026299Y005814*
X026302Y005813*
X026305Y005813*
X026309Y005813*
X026312*
X026316Y005813*
X026319Y005813*
X026322Y005814*
X026326Y005815*
X026329Y005816*
X026332Y005817*
X026335Y005819*
X026338Y005821*
X026341Y005823*
X026343Y005825*
X026346Y005827*
X026348Y00583*
X02635Y005833*
X026352Y005836*
X026354Y005838*
X026355Y005842*
X026357Y005845*
X026358Y005848*
X026358Y005851*
X026359Y005855*
X026359Y005858*
X02636Y005862*
X022333Y017776D02*
D01*
X022332Y017779*
X022332Y017782*
X022331Y017786*
X022331Y017789*
X02233Y017792*
X022328Y017795*
X022327Y017799*
X022325Y017801*
X022323Y017804*
X022321Y017807*
X022319Y01781*
X022316Y017812*
X022314Y017814*
X022311Y017816*
X022308Y017818*
X022305Y01782*
X022302Y017821*
X022299Y017822*
X022295Y017823*
X022292Y017824*
X022289Y017824*
X022285Y017824*
X022282*
X022278Y017824*
X022275Y017824*
X022272Y017823*
X022268Y017822*
X022265Y017821*
X022262Y01782*
X022259Y017818*
X022256Y017816*
X022253Y017814*
X022251Y017812*
X022248Y01781*
X022246Y017807*
X022244Y017804*
X022242Y017801*
X02224Y017799*
X022239Y017795*
X022237Y017792*
X022236Y017789*
X022236Y017786*
X022235Y017782*
X022235Y017779*
X022235Y017776*
X022235Y017772*
X022235Y017769*
X022236Y017765*
X022236Y017762*
X022237Y017759*
X022239Y017756*
X02224Y017752*
X022242Y01775*
X022244Y017747*
X022246Y017744*
X022248Y017741*
X022251Y017739*
X022253Y017737*
X022256Y017735*
X022259Y017733*
X022262Y017731*
X022265Y01773*
X022268Y017729*
X022272Y017728*
X022275Y017727*
X022278Y017727*
X022282Y017727*
X022285*
X022289Y017727*
X022292Y017727*
X022295Y017728*
X022299Y017729*
X022302Y01773*
X022305Y017731*
X022308Y017733*
X022311Y017735*
X022314Y017737*
X022316Y017739*
X022319Y017741*
X022321Y017744*
X022323Y017747*
X022325Y01775*
X022327Y017752*
X022328Y017756*
X02233Y017759*
X022331Y017762*
X022331Y017765*
X022332Y017769*
X022332Y017772*
X022333Y017776*
X014242Y01626D02*
D01*
X014241Y016263*
X014241Y016266*
X01424Y01627*
X01424Y016273*
X014239Y016276*
X014237Y016279*
X014236Y016283*
X014234Y016285*
X014232Y016288*
X01423Y016291*
X014228Y016294*
X014225Y016296*
X014223Y016298*
X01422Y0163*
X014217Y016302*
X014214Y016304*
X014211Y016305*
X014208Y016306*
X014204Y016307*
X014201Y016308*
X014198Y016308*
X014194Y016308*
X014191*
X014187Y016308*
X014184Y016308*
X014181Y016307*
X014177Y016306*
X014174Y016305*
X014171Y016304*
X014168Y016302*
X014165Y0163*
X014162Y016298*
X01416Y016296*
X014157Y016294*
X014155Y016291*
X014153Y016288*
X014151Y016285*
X014149Y016283*
X014148Y016279*
X014146Y016276*
X014145Y016273*
X014145Y01627*
X014144Y016266*
X014144Y016263*
X014144Y01626*
X014144Y016256*
X014144Y016253*
X014145Y016249*
X014145Y016246*
X014146Y016243*
X014148Y01624*
X014149Y016236*
X014151Y016234*
X014153Y016231*
X014155Y016228*
X014157Y016225*
X01416Y016223*
X014162Y016221*
X014165Y016219*
X014168Y016217*
X014171Y016215*
X014174Y016214*
X014177Y016213*
X014181Y016212*
X014184Y016211*
X014187Y016211*
X014191Y016211*
X014194*
X014198Y016211*
X014201Y016211*
X014204Y016212*
X014208Y016213*
X014211Y016214*
X014214Y016215*
X014217Y016217*
X01422Y016219*
X014223Y016221*
X014225Y016223*
X014228Y016225*
X01423Y016228*
X014232Y016231*
X014234Y016234*
X014236Y016236*
X014237Y01624*
X014239Y016243*
X01424Y016246*
X01424Y016249*
X014241Y016253*
X014241Y016256*
X014242Y01626*
X030346Y016004D02*
D01*
X030345Y016007*
X030345Y01601*
X030344Y016014*
X030344Y016017*
X030343Y01602*
X030341Y016023*
X03034Y016027*
X030338Y016029*
X030336Y016032*
X030334Y016035*
X030332Y016038*
X030329Y01604*
X030327Y016042*
X030324Y016044*
X030321Y016046*
X030318Y016048*
X030315Y016049*
X030312Y01605*
X030308Y016051*
X030305Y016052*
X030302Y016052*
X030298Y016052*
X030295*
X030291Y016052*
X030288Y016052*
X030285Y016051*
X030281Y01605*
X030278Y016049*
X030275Y016048*
X030272Y016046*
X030269Y016044*
X030266Y016042*
X030264Y01604*
X030261Y016038*
X030259Y016035*
X030257Y016032*
X030255Y016029*
X030253Y016027*
X030252Y016023*
X03025Y01602*
X030249Y016017*
X030249Y016014*
X030248Y01601*
X030248Y016007*
X030248Y016004*
X030248Y016*
X030248Y015997*
X030249Y015993*
X030249Y01599*
X03025Y015987*
X030252Y015984*
X030253Y01598*
X030255Y015978*
X030257Y015975*
X030259Y015972*
X030261Y015969*
X030264Y015967*
X030266Y015965*
X030269Y015963*
X030272Y015961*
X030275Y015959*
X030278Y015958*
X030281Y015957*
X030285Y015956*
X030288Y015955*
X030291Y015955*
X030295Y015955*
X030298*
X030302Y015955*
X030305Y015955*
X030308Y015956*
X030312Y015957*
X030315Y015958*
X030318Y015959*
X030321Y015961*
X030324Y015963*
X030327Y015965*
X030329Y015967*
X030332Y015969*
X030334Y015972*
X030336Y015975*
X030338Y015978*
X03034Y01598*
X030341Y015984*
X030343Y015987*
X030344Y01599*
X030344Y015993*
X030345Y015997*
X030345Y016*
X030346Y016004*
X032963Y018071D02*
D01*
X032962Y018074*
X032962Y018077*
X032961Y018081*
X032961Y018084*
X03296Y018087*
X032958Y01809*
X032957Y018094*
X032955Y018096*
X032953Y018099*
X032951Y018102*
X032949Y018105*
X032946Y018107*
X032944Y018109*
X032941Y018111*
X032938Y018113*
X032935Y018115*
X032932Y018116*
X032929Y018117*
X032925Y018118*
X032922Y018119*
X032919Y018119*
X032915Y018119*
X032912*
X032908Y018119*
X032905Y018119*
X032902Y018118*
X032898Y018117*
X032895Y018116*
X032892Y018115*
X032889Y018113*
X032886Y018111*
X032883Y018109*
X032881Y018107*
X032878Y018105*
X032876Y018102*
X032874Y018099*
X032872Y018096*
X03287Y018094*
X032869Y01809*
X032867Y018087*
X032866Y018084*
X032866Y018081*
X032865Y018077*
X032865Y018074*
X032865Y018071*
X032865Y018067*
X032865Y018064*
X032866Y01806*
X032866Y018057*
X032867Y018054*
X032869Y018051*
X03287Y018047*
X032872Y018045*
X032874Y018042*
X032876Y018039*
X032878Y018036*
X032881Y018034*
X032883Y018032*
X032886Y01803*
X032889Y018028*
X032892Y018026*
X032895Y018025*
X032898Y018024*
X032902Y018023*
X032905Y018022*
X032908Y018022*
X032912Y018022*
X032915*
X032919Y018022*
X032922Y018022*
X032925Y018023*
X032929Y018024*
X032932Y018025*
X032935Y018026*
X032938Y018028*
X032941Y01803*
X032944Y018032*
X032946Y018034*
X032949Y018036*
X032951Y018039*
X032953Y018042*
X032955Y018045*
X032957Y018047*
X032958Y018051*
X03296Y018054*
X032961Y018057*
X032961Y01806*
X032962Y018064*
X032962Y018067*
X032963Y018071*
X032569Y019598D02*
D01*
X032568Y019601*
X032568Y019604*
X032567Y019608*
X032567Y019611*
X032566Y019614*
X032564Y019617*
X032563Y019621*
X032561Y019623*
X032559Y019626*
X032557Y019629*
X032555Y019632*
X032552Y019634*
X03255Y019636*
X032547Y019638*
X032544Y01964*
X032541Y019642*
X032538Y019643*
X032535Y019644*
X032531Y019645*
X032528Y019646*
X032525Y019646*
X032521Y019646*
X032518*
X032514Y019646*
X032511Y019646*
X032508Y019645*
X032504Y019644*
X032501Y019643*
X032498Y019642*
X032495Y01964*
X032492Y019638*
X032489Y019636*
X032487Y019634*
X032484Y019632*
X032482Y019629*
X03248Y019626*
X032478Y019623*
X032476Y019621*
X032475Y019617*
X032473Y019614*
X032472Y019611*
X032472Y019608*
X032471Y019604*
X032471Y019601*
X032471Y019598*
X032471Y019594*
X032471Y019591*
X032472Y019587*
X032472Y019584*
X032473Y019581*
X032475Y019578*
X032476Y019574*
X032478Y019572*
X03248Y019569*
X032482Y019566*
X032484Y019563*
X032487Y019561*
X032489Y019559*
X032492Y019557*
X032495Y019555*
X032498Y019553*
X032501Y019552*
X032504Y019551*
X032508Y01955*
X032511Y019549*
X032514Y019549*
X032518Y019549*
X032521*
X032525Y019549*
X032528Y019549*
X032531Y01955*
X032535Y019551*
X032538Y019552*
X032541Y019553*
X032544Y019555*
X032547Y019557*
X03255Y019559*
X032552Y019561*
X032555Y019563*
X032557Y019566*
X032559Y019569*
X032561Y019572*
X032563Y019574*
X032564Y019578*
X032566Y019581*
X032567Y019584*
X032567Y019587*
X032568Y019591*
X032568Y019594*
X032569Y019598*
X030167Y006516D02*
D01*
X030166Y006519*
X030166Y006522*
X030165Y006526*
X030165Y006529*
X030164Y006532*
X030162Y006535*
X030161Y006539*
X030159Y006541*
X030157Y006544*
X030155Y006547*
X030153Y00655*
X03015Y006552*
X030148Y006554*
X030145Y006556*
X030142Y006558*
X030139Y00656*
X030136Y006561*
X030133Y006562*
X030129Y006563*
X030126Y006564*
X030123Y006564*
X030119Y006564*
X030116*
X030112Y006564*
X030109Y006564*
X030106Y006563*
X030102Y006562*
X030099Y006561*
X030096Y00656*
X030093Y006558*
X03009Y006556*
X030087Y006554*
X030085Y006552*
X030082Y00655*
X03008Y006547*
X030078Y006544*
X030076Y006541*
X030074Y006539*
X030073Y006535*
X030071Y006532*
X03007Y006529*
X03007Y006526*
X030069Y006522*
X030069Y006519*
X030069Y006516*
X030069Y006512*
X030069Y006509*
X03007Y006505*
X03007Y006502*
X030071Y006499*
X030073Y006496*
X030074Y006492*
X030076Y00649*
X030078Y006487*
X03008Y006484*
X030082Y006481*
X030085Y006479*
X030087Y006477*
X03009Y006475*
X030093Y006473*
X030096Y006471*
X030099Y00647*
X030102Y006469*
X030106Y006468*
X030109Y006467*
X030112Y006467*
X030116Y006467*
X030119*
X030123Y006467*
X030126Y006467*
X030129Y006468*
X030133Y006469*
X030136Y00647*
X030139Y006471*
X030142Y006473*
X030145Y006475*
X030148Y006477*
X03015Y006479*
X030153Y006481*
X030155Y006484*
X030157Y006487*
X030159Y00649*
X030161Y006492*
X030162Y006496*
X030164Y006499*
X030165Y006502*
X030165Y006505*
X030166Y006509*
X030166Y006512*
X030167Y006516*
G54D62*
X030571Y019646D02*
D01*
X030529Y019588*
X030491Y019527*
X030457Y019464*
X030428Y019399*
X030404Y019331*
X030384Y019263*
X030369Y019193*
X030359Y019122*
X030354Y019051*
X030354Y018979*
X030359Y018908*
X030369Y018837*
X030384Y018767*
X030404Y018699*
X030428Y018632*
X030457Y018566*
X030491Y018503*
X030529Y018443*
X030571Y018385*
X030617Y01833*
X030667Y018279*
X03072Y018231*
X030776Y018187*
X030835Y018147*
X030897Y018111*
X030961Y01808*
X031028Y018053*
X031096Y018031*
X031165Y018014*
X031235Y018002*
X031306Y017994*
X031378Y017992*
X031449Y017994*
X03152Y018002*
X031591Y018014*
X03166Y018031*
X031728Y018054*
X031794Y01808*
X031858Y018112*
X03192Y018147*
X03198Y018187*
X032036Y018231*
X032089Y018279*
X032139Y018331*
X032185Y018386*
X032226Y018443*
X032264Y018504*
X032298Y018567*
X032327Y018632*
X032351Y0187*
X032371Y018768*
X032386Y018838*
X032396Y018909*
X032401Y01898*
X032401Y019052*
X032396Y019123*
X032386Y019194*
X032371Y019264*
X032351Y019332*
X032327Y019399*
X032298Y019465*
X032264Y019528*
X032226Y019588*
X032185Y019646*
X005531Y010532D02*
Y011004D01*
X004675Y015659D02*
X005463D01*
Y019439*
X-000246Y015659D02*
X0031D01*
X-000246Y019439D02*
X005463D01*
X-000246Y015659D02*
Y019439D01*
X027687Y017303D02*
Y017776D01*
X031181Y014695D02*
Y015167D01*
X026634Y012726D02*
X026949D01*
X026634Y013317D02*
X026949D01*
X-000283Y008273D02*
Y01217D01*
Y008273D02*
X000229D01*
X001528D02*
X002394D01*
X001528Y01217D02*
X002394D01*
X-000283D02*
X000229D01*
X003497Y009021D02*
Y009336D01*
Y011107D02*
Y011422D01*
X00003Y00876D02*
X000305D01*
X000172D02*
Y011673D01*
X00003D02*
X000285D01*
X001476D02*
X001869D01*
Y011309D02*
Y011673D01*
Y00876D02*
X00187Y009154D01*
X001496Y00876D02*
X001869D01*
X013445Y010394D02*
Y012756D01*
X020571Y010394D02*
Y012756D01*
X013445Y010394D02*
X020571D01*
X013445Y012756D02*
X020571D01*
X021732Y012205D02*
Y012677D01*
X011272Y014122D02*
X012272D01*
Y009122D02*
Y014122D01*
X011272Y009122D02*
Y014122D01*
Y009122D02*
X012272D01*
X009035Y01685D02*
Y017953D01*
X006398Y01685D02*
Y017953D01*
X009035*
X006398Y01685D02*
X009035D01*
X005787Y011457D02*
Y011772D01*
X005433Y011457D02*
X005787D01*
Y012323D02*
Y012638D01*
X005433D02*
X005787D01*
X005512Y012992D02*
Y013465D01*
X002087Y013583D02*
Y014055D01*
X005512Y008189D02*
Y008661D01*
Y007362D02*
Y007835D01*
X007323Y000787D02*
Y00126D01*
Y001654D02*
Y002126D01*
X007953Y005394D02*
X008425D01*
X009331D02*
X009803D01*
X010197D02*
X010669D01*
X012854Y003839D02*
X013327D01*
X016063Y003819D02*
X016535D01*
X014646Y002402D02*
Y002874D01*
X01378Y003907D02*
Y004262D01*
X014094*
X014961Y003907D02*
Y004262D01*
X014646D02*
X014961D01*
X016968Y003937D02*
Y004291D01*
X017283*
X01815Y003937D02*
Y004291D01*
X017835D02*
X01815D01*
X018504Y003937D02*
Y004291D01*
X018819*
X019685Y003937D02*
Y004291D01*
X01937D02*
X019685D01*
X020079Y003858D02*
X020551D01*
X022913Y002126D02*
X023386D01*
X024409D02*
X024882D01*
X026654D02*
X027126D01*
X025906D02*
X026378D01*
X022165D02*
X022638D01*
X023661D02*
X024134D01*
X025157D02*
X02563D01*
X022257Y005272D02*
X026194D01*
X022257Y004563D02*
X026194D01*
Y005272*
X022257Y004563D02*
Y005272D01*
X021732Y013071D02*
Y013543D01*
X020522Y015906D02*
Y016378D01*
X021673Y018031D02*
X022028D01*
Y017717D02*
Y018031D01*
X021673Y01685D02*
X022028D01*
Y017165*
X013819Y017559D02*
Y017854D01*
X018307Y015925D02*
Y01622D01*
X013819Y015925D02*
X018307D01*
X013819D02*
Y01622D01*
X018307Y017559D02*
Y017854D01*
X013819D02*
X018307D01*
X028228Y015472D02*
X030197D01*
X028228Y014685D02*
X030197D01*
Y015472*
X028228Y014685D02*
Y015472D01*
X03063Y016102D02*
X031102D01*
X030748Y017008D02*
Y01748D01*
X03687Y017815D02*
Y019665D01*
X032657Y017815D02*
Y019665D01*
Y017815D02*
X03687D01*
X032657Y019665D02*
X03687D01*
X032657Y019468D02*
X03687D01*
X030571Y019646D02*
X032185D01*
X033504Y016968D02*
X033976D01*
X037539Y014764D02*
Y01626D01*
X03876Y014764D02*
Y01626D01*
X008192Y002787D02*
Y003847D01*
X008162Y003577D02*
X008192Y002787D01*
X008122Y003047D02*
X008162Y003577D01*
X030295Y007008D02*
X032303D01*
X030295Y008268D02*
X032303D01*
X030295Y007008D02*
Y008268D01*
X032303Y007008D02*
Y008268D01*
X027047Y015276D02*
Y015748D01*
Y014449D02*
Y014921D01*
X025472Y015276D02*
Y015748D01*
X025774Y010081D02*
X027774D01*
Y011081*
X025774D02*
X027774D01*
X025774Y010081D02*
Y011081D01*
X027411Y013484D02*
X027707D01*
Y012559D02*
Y013484D01*
X027411Y012559D02*
X027707D01*
X000236Y015138D02*
X000341D01*
X000289*
Y015453*
X000236Y0154*
X000709Y015138D02*
X000499D01*
X000709Y015348*
Y0154*
X000656Y015453*
X000551*
X000499Y0154*
X000813Y015453D02*
Y015243D01*
X000918Y015138*
X001023Y015243*
Y015453*
X001128Y015138D02*
X001338Y015348D01*
X001653Y015138D02*
X001443D01*
X001653Y015348*
Y0154*
X001601Y015453*
X001496*
X001443Y0154*
X001915Y015138D02*
Y015453D01*
X001758Y015295*
X001968*
X002073Y015453D02*
Y015243D01*
X002178Y015138*
X002283Y015243*
Y015453*
X028051Y000886D02*
X027658D01*
Y001083*
X027723Y001148*
X027854*
X02792Y001083*
Y000886*
Y001017D02*
X028051Y001148D01*
Y001542D02*
Y001279D01*
X027789Y001542*
X027723*
X027658Y001476*
Y001345*
X027723Y001279*
X028051Y00187D02*
X027658D01*
X027854Y001673*
Y001935*
Y002067D02*
Y002329D01*
X028051Y00246D02*
X027658D01*
Y002657*
X027723Y002723*
X027854*
X02792Y002657*
Y00246*
Y002591D02*
X028051Y002723D01*
X027723Y002854D02*
X027658Y002919D01*
Y00305*
X027723Y003116*
X027789*
X027854Y00305*
Y002985*
Y00305*
X02792Y003116*
X027986*
X028051Y00305*
Y002919*
X027986Y002854*
X027723Y003247D02*
X027658Y003313D01*
Y003444*
X027723Y00351*
X027986*
X028051Y003444*
Y003313*
X027986Y003247*
X027723*
X005Y009911D02*
Y010305D01*
X005197*
X005262Y010239*
Y010108*
X005197Y010043*
X005*
X005131D02*
X005262Y009911D01*
X005394Y010239D02*
X005459Y010305D01*
X00559*
X005656Y010239*
Y010174*
X00559Y010108*
X005525*
X00559*
X005656Y010043*
Y009977*
X00559Y009911*
X005459*
X005394Y009977*
X005984Y009911D02*
Y010305D01*
X005787Y010108*
X00605*
X018756Y015082D02*
X018691Y015148D01*
X01856*
X018494Y015082*
Y01482*
X01856Y014754*
X018691*
X018756Y01482*
X018888Y014754D02*
X019019D01*
X018953*
Y015148*
X018888Y015082*
X019216D02*
X019281Y015148D01*
X019412*
X019478Y015082*
Y015016*
X019412Y014951*
X019478Y014885*
Y01482*
X019412Y014754*
X019281*
X019216Y01482*
Y014885*
X019281Y014951*
X019216Y015016*
Y015082*
X019281Y014951D02*
X019412D01*
X026171Y017323D02*
Y017716D01*
X026368*
X026434Y017651*
Y01752*
X026368Y017454*
X026171*
X026302D02*
X026434Y017323D01*
X026827Y017716D02*
X026565D01*
Y01752*
X026696Y017585*
X026762*
X026827Y01752*
Y017388*
X026762Y017323*
X02663*
X026565Y017388*
X030689Y014016D02*
Y014409D01*
X030886*
X030951Y014344*
Y014213*
X030886Y014147*
X030689*
X03082D02*
X030951Y014016D01*
X031083Y014344D02*
X031148Y014409D01*
X031279*
X031345Y014344*
Y014278*
X031279Y014213*
X031214*
X031279*
X031345Y014147*
Y014081*
X031279Y014016*
X031148*
X031083Y014081*
X031476Y014344D02*
X031542Y014409D01*
X031673*
X031739Y014344*
Y014278*
X031673Y014213*
X031607*
X031673*
X031739Y014147*
Y014081*
X031673Y014016*
X031542*
X031476Y014081*
X029255Y018704D02*
X029321Y01877D01*
Y018901*
X029255Y018967*
X028993*
X028927Y018901*
Y01877*
X028993Y018704*
X028927Y018573D02*
Y018442D01*
Y018507*
X029321*
X029255Y018573*
X029321Y018245D02*
Y017983D01*
X029255*
X028993Y018245*
X028927*
X025325Y013238D02*
Y012844D01*
X025522*
X025587Y01291*
Y013172*
X025522Y013238*
X025325*
X025718Y012844D02*
X02585D01*
X025784*
Y013238*
X025718Y013172*
X000197Y012992D02*
Y012664D01*
X000262Y012598*
X000394*
X000459Y012664*
Y012992*
X000853Y012926D02*
X000787Y012992D01*
X000656*
X00059Y012926*
Y012861*
X000656Y012795*
X000787*
X000853Y01273*
Y012664*
X000787Y012598*
X000656*
X00059Y012664*
X000984Y012992D02*
Y012598D01*
X001181*
X001246Y012664*
Y01273*
X001181Y012795*
X000984*
X001181*
X001246Y012861*
Y012926*
X001181Y012992*
X000984*
X027717Y013661D02*
X028045D01*
X02811Y013727*
Y013858*
X028045Y013924*
X027717*
X02811Y014055D02*
Y014186D01*
Y014121*
X027717*
X027782Y014055*
X013091Y017913D02*
Y017848D01*
X013222Y017716*
X013353Y017848*
Y017913*
X013222Y017716D02*
Y01752D01*
X013484D02*
X013615D01*
X01355*
Y017913*
X013484Y017848*
X02687Y005512D02*
X026542D01*
X026476Y005446*
Y005315*
X026542Y005249*
X02687*
Y004856D02*
X026804Y004987D01*
X026673Y005118*
X026542*
X026476Y005053*
Y004921*
X026542Y004856*
X026608*
X026673Y004921*
Y005118*
X029528Y019488D02*
Y01916D01*
X029593Y019094*
X029724*
X02979Y01916*
Y019488*
X030184D02*
X029921D01*
Y019291*
X030052Y019357*
X030118*
X030184Y019291*
Y01916*
X030118Y019094*
X029987*
X029921Y01916*
X013209Y01189D02*
X012881D01*
X012815Y011824*
Y011693*
X012881Y011627*
X013209*
X012815Y011299D02*
X013209D01*
X013012Y011496*
Y011234*
X00876Y018602D02*
Y018274D01*
X008825Y018209*
X008957*
X009022Y018274*
Y018602*
X009153Y018537D02*
X009219Y018602D01*
X00935*
X009416Y018537*
Y018471*
X00935Y018405*
X009285*
X00935*
X009416Y01834*
Y018274*
X00935Y018209*
X009219*
X009153Y018274*
X029626Y007185D02*
X029954D01*
X03002Y007251*
Y007382*
X029954Y007447*
X029626*
X03002Y007841D02*
Y007579D01*
X029757Y007841*
X029692*
X029626Y007775*
Y007644*
X029692Y007579*
X010902Y002438D02*
X010837Y002372D01*
Y002241*
X010902Y002175*
X010968*
X011034Y002241*
Y002372*
X011099Y002438*
X011165*
X01123Y002372*
Y002241*
X011165Y002175*
X010837Y002569D02*
Y002831D01*
Y0027*
X01123*
Y002962D02*
X010968D01*
X010837Y003094*
X010968Y003225*
X01123*
X011034*
Y002962*
X010837Y003356D02*
Y003618D01*
Y003487*
X01123*
X010837Y003749D02*
X011165D01*
X01123Y003815*
Y003946*
X011165Y004012*
X010837*
X010902Y004405D02*
X010837Y00434D01*
Y004209*
X010902Y004143*
X010968*
X011034Y004209*
Y00434*
X011099Y004405*
X011165*
X01123Y00434*
Y004209*
X011165Y004143*
X023031Y016831D02*
X022638D01*
Y017027*
X022704Y017093*
X022835*
X0229Y017027*
Y016831*
Y016962D02*
X023031Y017093D01*
X022638Y017487D02*
Y017224D01*
X023031*
Y017487*
X022835Y017224D02*
Y017355D01*
X022638Y01788D02*
Y017618D01*
X022835*
Y017749*
Y017618*
X023031*
Y018011D02*
Y018143D01*
Y018077*
X022638*
X022704Y018011*
X006791Y000197D02*
Y00059D01*
X006988*
X007054Y000525*
Y000394*
X006988Y000328*
X006791*
X006923D02*
X007054Y000197D01*
X007185Y000525D02*
X007251Y00059D01*
X007382*
X007447Y000525*
Y000459*
X007382Y000394*
X007316*
X007382*
X007447Y000328*
Y000262*
X007382Y000197*
X007251*
X007185Y000262*
X007841Y000197D02*
X007578D01*
X007841Y000459*
Y000525*
X007775Y00059*
X007644*
X007578Y000525*
X013287Y004724D02*
X012894D01*
Y004921*
X012959Y004987*
X013091*
X013156Y004921*
Y004724*
Y004856D02*
X013287Y004987D01*
X012959Y005118D02*
X012894Y005184D01*
Y005315*
X012959Y00538*
X013025*
X013091Y005315*
Y005249*
Y005315*
X013156Y00538*
X013222*
X013287Y005315*
Y005184*
X013222Y005118*
X013287Y005512D02*
Y005643D01*
Y005577*
X012894*
X012959Y005512*
X00374Y007382D02*
Y007775D01*
X003937*
X004003Y00771*
Y007579*
X003937Y007513*
X00374*
X003871D02*
X004003Y007382D01*
X004396D02*
X004134D01*
X004396Y007644*
Y00771*
X004331Y007775*
X004199*
X004134Y00771*
X004527D02*
X004593Y007775D01*
X004724*
X00479Y00771*
Y007644*
X004724Y007579*
X004658*
X004724*
X00479Y007513*
Y007447*
X004724Y007382*
X004593*
X004527Y007447*
X00374Y008268D02*
Y008661D01*
X003937*
X004003Y008596*
Y008464*
X003937Y008399*
X00374*
X003871D02*
X004003Y008268D01*
X004396D02*
X004134D01*
X004396Y00853*
Y008596*
X004331Y008661*
X004199*
X004134Y008596*
X00479Y008268D02*
X004527D01*
X00479Y00853*
Y008596*
X004724Y008661*
X004593*
X004527Y008596*
X006791Y002362D02*
Y002756D01*
X006988*
X007054Y00269*
Y002559*
X006988Y002493*
X006791*
X006923D02*
X007054Y002362D01*
X007447D02*
X007185D01*
X007447Y002625*
Y00269*
X007382Y002756*
X007251*
X007185Y00269*
X007578Y002362D02*
X00771D01*
X007644*
Y002756*
X007578Y00269*
X020472Y001969D02*
X020079D01*
Y002165*
X020144Y002231*
X020276*
X020341Y002165*
Y001969*
Y0021D02*
X020472Y002231D01*
Y002624D02*
Y002362D01*
X02021Y002624*
X020144*
X020079Y002559*
Y002428*
X020144Y002362*
Y002756D02*
X020079Y002821D01*
Y002952*
X020144Y003018*
X020407*
X020472Y002952*
Y002821*
X020407Y002756*
X020144*
X016535Y002067D02*
X016142D01*
Y002264*
X016207Y002329*
X016339*
X016404Y002264*
Y002067*
Y002198D02*
X016535Y002329D01*
Y002461D02*
Y002592D01*
Y002526*
X016142*
X016207Y002461*
X01647Y002788D02*
X016535Y002854D01*
Y002985*
X01647Y003051*
X016207*
X016142Y002985*
Y002854*
X016207Y002788*
X016273*
X016339Y002854*
Y003051*
X012894Y002461D02*
Y002854D01*
X01309*
X013156Y002789*
Y002657*
X01309Y002592*
X012894*
X013025D02*
X013156Y002461D01*
X013287D02*
X013418D01*
X013353*
Y002854*
X013287Y002789*
X013615D02*
X013681Y002854D01*
X013812*
X013878Y002789*
Y002723*
X013812Y002657*
X013878Y002592*
Y002526*
X013812Y002461*
X013681*
X013615Y002526*
Y002592*
X013681Y002657*
X013615Y002723*
Y002789*
X013681Y002657D02*
X013812D01*
X01063Y006299D02*
X010236D01*
Y006496*
X010302Y006562*
X010433*
X010499Y006496*
Y006299*
Y00643D02*
X01063Y006562D01*
Y006693D02*
Y006824D01*
Y006758*
X010236*
X010302Y006693*
X010236Y007021D02*
Y007283D01*
X010302*
X010564Y007021*
X01063*
X009744Y006299D02*
X009351D01*
Y006496*
X009416Y006562*
X009547*
X009613Y006496*
Y006299*
Y00643D02*
X009744Y006562D01*
Y006693D02*
Y006824D01*
Y006758*
X009351*
X009416Y006693*
X009351Y007283D02*
X009416Y007152D01*
X009547Y007021*
X009679*
X009744Y007086*
Y007218*
X009679Y007283*
X009613*
X009547Y007218*
Y007021*
X008366Y006299D02*
X007973D01*
Y006496*
X008038Y006562*
X008169*
X008235Y006496*
Y006299*
Y00643D02*
X008366Y006562D01*
Y006693D02*
Y006824D01*
Y006758*
X007973*
X008038Y006693*
X008366Y007218D02*
X007973D01*
X008169Y007021*
Y007283*
X02126Y01378D02*
Y014173D01*
X021457*
X021522Y014108*
Y013976*
X021457Y013911*
X02126*
X021391D02*
X021522Y01378D01*
X021653D02*
X021785D01*
X021719*
Y014173*
X021653Y014108*
X021981D02*
X022047Y014173D01*
X022178*
X022244Y014108*
Y014042*
X022178Y013976*
X022113*
X022178*
X022244Y013911*
Y013845*
X022178Y01378*
X022047*
X021981Y013845*
X02127Y011624D02*
Y012018D01*
X021466*
X021532Y011952*
Y011821*
X021466Y011755*
X02127*
X021401D02*
X021532Y011624D01*
X021663D02*
X021794D01*
X021729*
Y012018*
X021663Y011952*
X022254Y011624D02*
X021991D01*
X022254Y011886*
Y011952*
X022188Y012018*
X022057*
X021991Y011952*
X021358Y015945D02*
Y016338D01*
X021555*
X021621Y016273*
Y016142*
X021555Y016076*
X021358*
X021489D02*
X021621Y015945D01*
X021752D02*
X021883D01*
X021817*
Y016338*
X021752Y016273*
X02208Y015945D02*
X022211D01*
X022145*
Y016338*
X02208Y016273*
X006299Y013091D02*
Y013484D01*
X006496*
X006562Y013419*
Y013287*
X006496Y013222*
X006299*
X00643D02*
X006562Y013091D01*
X006693D02*
X006824D01*
X006758*
Y013484*
X006693Y013419*
X007021D02*
X007086Y013484D01*
X007218*
X007283Y013419*
Y013156*
X007218Y013091*
X007086*
X007021Y013156*
Y013419*
X000591Y013681D02*
Y014075D01*
X000787*
X000853Y014009*
Y013878*
X000787Y013812*
X000591*
X000722D02*
X000853Y013681D01*
X000984Y013747D02*
X00105Y013681D01*
X001181*
X001247Y013747*
Y014009*
X001181Y014075*
X00105*
X000984Y014009*
Y013943*
X00105Y013878*
X001247*
X031732Y015817D02*
X031339D01*
Y016014*
X031404Y016079*
X031535*
X031601Y016014*
Y015817*
Y015948D02*
X031732Y016079D01*
X031404Y016211D02*
X031339Y016276D01*
Y016407*
X031404Y016473*
X03147*
X031535Y016407*
X031601Y016473*
X031667*
X031732Y016407*
Y016276*
X031667Y016211*
X031601*
X031535Y016276*
X03147Y016211*
X031404*
X031535Y016276D02*
Y016407D01*
X038287Y013583D02*
Y013976D01*
X038484*
X03855Y013911*
Y013779*
X038484Y013714*
X038287*
X038419D02*
X03855Y013583D01*
X038681Y013976D02*
X038943D01*
Y013911*
X038681Y013648*
Y013583*
X033268Y016634D02*
X032874D01*
Y016831*
X03294Y016896*
X033071*
X033137Y016831*
Y016634*
Y016765D02*
X033268Y016896D01*
X032874Y01729D02*
X03294Y017159D01*
X033071Y017027*
X033202*
X033268Y017093*
Y017224*
X033202Y01729*
X033137*
X033071Y017224*
Y017027*
X026722Y015984D02*
Y016378D01*
X026919*
X026985Y016312*
Y016181*
X026919Y016115*
X026722*
X026854D02*
X026985Y015984D01*
X027313D02*
Y016378D01*
X027116Y016181*
X027378*
X03003Y017726D02*
Y01812D01*
X030226*
X030292Y018054*
Y017923*
X030226Y017858*
X03003*
X030161D02*
X030292Y017726D01*
X030423Y018054D02*
X030489Y01812D01*
X03062*
X030685Y018054*
Y017989*
X03062Y017923*
X030554*
X03062*
X030685Y017858*
Y017792*
X03062Y017726*
X030489*
X030423Y017792*
X026683Y013829D02*
Y014222D01*
X02688*
X026945Y014157*
Y014026*
X02688Y01396*
X026683*
X026814D02*
X026945Y013829D01*
X027339D02*
X027077D01*
X027339Y014091*
Y014157*
X027273Y014222*
X027142*
X027077Y014157*
X025157Y015984D02*
Y016378D01*
X025354*
X02542Y016312*
Y016181*
X025354Y016115*
X025157*
X025289D02*
X02542Y015984D01*
X025551D02*
X025682D01*
X025617*
Y016378*
X025551Y016312*
X018963Y002822D02*
Y003084D01*
X018898Y003149*
X018766*
X018701Y003084*
Y002822*
X018766Y002756*
X018898*
X018832Y002887D02*
X018963Y002756D01*
X018898D02*
X018963Y002822D01*
X019357Y003149D02*
X019226Y003084D01*
X019094Y002953*
Y002822*
X01916Y002756*
X019291*
X019357Y002822*
Y002887*
X019291Y002953*
X019094*
X017585Y002822D02*
Y003084D01*
X01752Y003149*
X017388*
X017323Y003084*
Y002822*
X017388Y002756*
X01752*
X017454Y002887D02*
X017585Y002756D01*
X01752D02*
X017585Y002822D01*
X017979Y003149D02*
X017716D01*
Y002953*
X017848Y003018*
X017913*
X017979Y002953*
Y002822*
X017913Y002756*
X017782*
X017716Y002822*
X015026Y004593D02*
Y004856D01*
X014961Y004921*
X014829*
X014764Y004856*
Y004593*
X014829Y004528*
X014961*
X014895Y004659D02*
X015026Y004528D01*
X014961D02*
X015026Y004593D01*
X015354Y004528D02*
Y004921D01*
X015157Y004724*
X01542*
X006562Y012051D02*
X006824D01*
X00689Y012116*
Y012247*
X006824Y012313*
X006562*
X006496Y012247*
Y012116*
X006627Y012182D02*
X006496Y012051D01*
Y012116D02*
X006562Y012051D01*
X006496Y011657D02*
Y011919D01*
X006758Y011657*
X006824*
X00689Y011723*
Y011854*
X006824Y011919*
X037369Y01916D02*
Y019422D01*
X037303Y019488*
X037172*
X037106Y019422*
Y01916*
X037172Y019094*
X037303*
X037237Y019226D02*
X037369Y019094D01*
X037303D02*
X037369Y01916D01*
X0375Y019094D02*
X037631D01*
X037565*
Y019488*
X0375Y019422*
X011033Y014793D02*
X011165D01*
X011099*
Y0144*
X011033*
X011165*
X011624Y014728D02*
X011558Y014793D01*
X011427*
X011361Y014728*
Y014465*
X011427Y0144*
X011558*
X011624Y014465*
X012017Y014728D02*
X011952Y014793D01*
X011821*
X011755Y014728*
Y014662*
X011821Y014596*
X011952*
X012017Y014531*
Y014465*
X011952Y0144*
X011821*
X011755Y014465*
X012149Y0144D02*
Y014793D01*
X012345*
X012411Y014728*
Y014596*
X012345Y014531*
X012149*
X003031Y014537D02*
Y014931D01*
X003228*
X003294Y014865*
Y014734*
X003228Y014669*
X003031*
X003425Y014931D02*
Y014537D01*
X003556Y014669*
X003687Y014537*
Y014931*
X003819Y014537D02*
Y014931D01*
X004015*
X004081Y014865*
Y014734*
X004015Y014669*
X003819*
X00395D02*
X004081Y014537D01*
X004803Y014931D02*
X004671D01*
X004606Y014865*
Y014603*
X004671Y014537*
X004803*
X004868Y014603*
Y014865*
X004803Y014931*
X004999Y014537D02*
Y014931D01*
X005262Y014537*
Y014931*
X000774Y007205D02*
X000512D01*
Y006811*
X000774*
X000512Y007008D02*
X000643D01*
X000905Y006811D02*
Y007205D01*
X001168Y006811*
Y007205*
X001299Y006811D02*
X00143D01*
X001365*
Y007205*
X001299Y007139*
X01255Y007244D02*
Y00685D01*
X012747*
X012812Y006916*
Y007178*
X012747Y007244*
X01255*
X012944Y00685D02*
X013075D01*
X013009*
Y007244*
X012944Y007178*
X00666Y008793D02*
X006594Y008858D01*
X006463*
X006398Y008793*
Y00853*
X006463Y008465*
X006594*
X00666Y00853*
X006791Y008465D02*
X006922D01*
X006857*
Y008858*
X006791Y008793*
X007382Y008858D02*
X00725Y008793D01*
X007119Y008661*
Y00853*
X007185Y008465*
X007316*
X007382Y00853*
Y008596*
X007316Y008661*
X007119*
X023983Y012533D02*
X023917Y012598D01*
X023786*
X02372Y012533*
Y01227*
X023786Y012205*
X023917*
X023983Y01227*
X024114Y012205D02*
X024245D01*
X02418*
Y012598*
X024114Y012533*
X024704Y012598D02*
X024442D01*
Y012402*
X024573Y012467*
X024639*
X024704Y012402*
Y01227*
X024639Y012205*
X024508*
X024442Y01227*
X017782Y018635D02*
X017716Y018701D01*
X017585*
X01752Y018635*
Y018373*
X017585Y018307*
X017716*
X017782Y018373*
X017913Y018307D02*
X018044D01*
X017979*
Y018701*
X017913Y018635*
X018438Y018307D02*
Y018701D01*
X018241Y018504*
X018504*
X013943Y018635D02*
X013878Y018701D01*
X013747*
X013681Y018635*
Y018373*
X013747Y018307*
X013878*
X013943Y018373*
X014075Y018307D02*
X014206D01*
X01414*
Y018701*
X014075Y018635*
X014403D02*
X014468Y018701D01*
X014599*
X014665Y018635*
Y018569*
X014599Y018504*
X014534*
X014599*
X014665Y018438*
Y018373*
X014599Y018307*
X014468*
X014403Y018373*
X021621Y015485D02*
X021555Y015551D01*
X021424*
X021358Y015485*
Y015223*
X021424Y015157*
X021555*
X021621Y015223*
X021752Y015157D02*
X021883D01*
X021817*
Y015551*
X021752Y015485*
X022342Y015157D02*
X02208D01*
X022342Y01542*
Y015485*
X022277Y015551*
X022145*
X02208Y015485*
X021522Y014796D02*
X021457Y014862D01*
X021325*
X02126Y014796*
Y014534*
X021325Y014468*
X021457*
X021522Y014534*
X021653Y014468D02*
X021785D01*
X021719*
Y014862*
X021653Y014796*
X021981Y014468D02*
X022113D01*
X022047*
Y014862*
X021981Y014796*
X022408Y011352D02*
X022342Y011417D01*
X022211*
X022146Y011352*
Y011089*
X022211Y011024*
X022342*
X022408Y011089*
X022539Y011024D02*
X02267D01*
X022605*
Y011417*
X022539Y011352*
X022867D02*
X022933Y011417D01*
X023064*
X02313Y011352*
Y011089*
X023064Y011024*
X022933*
X022867Y011089*
Y011352*
X022506Y010564D02*
X022441Y01063D01*
X02231*
X022244Y010564*
Y010302*
X02231Y010236*
X022441*
X022506Y010302*
X022638D02*
X022703Y010236D01*
X022834*
X0229Y010302*
Y010564*
X022834Y01063*
X022703*
X022638Y010564*
Y010499*
X022703Y010433*
X0229*
X022506Y009777D02*
X022441Y009842D01*
X02231*
X022244Y009777*
Y009514*
X02231Y009449*
X022441*
X022506Y009514*
X022638Y009777D02*
X022703Y009842D01*
X022834*
X0229Y009777*
Y009711*
X022834Y009646*
X0229Y00958*
Y009514*
X022834Y009449*
X022703*
X022638Y009514*
Y00958*
X022703Y009646*
X022638Y009711*
Y009777*
X022703Y009646D02*
X022834D01*
X020341Y018471D02*
X020276Y018405D01*
Y018274*
X020341Y018209*
X020604*
X020669Y018274*
Y018405*
X020604Y018471*
X020276Y018602D02*
Y018865D01*
X020341*
X020604Y018602*
X020669*
X021621Y019422D02*
X021555Y019488D01*
X021424*
X021358Y019422*
Y01916*
X021424Y019094*
X021555*
X021621Y01916*
X022014Y019488D02*
X021752D01*
Y019291*
X021883Y019357*
X021949*
X022014Y019291*
Y01916*
X021949Y019094*
X021817*
X021752Y01916*
X030479Y01332D02*
X030413Y013386D01*
X030282*
X030217Y01332*
Y013058*
X030282Y012992*
X030413*
X030479Y013058*
X030807Y012992D02*
Y013386D01*
X03061Y013189*
X030872*
X028412Y012631D02*
X028346Y012697D01*
X028215*
X02815Y012631*
Y012369*
X028215Y012303*
X028346*
X028412Y012369*
X028543Y012631D02*
X028609Y012697D01*
X02874*
X028806Y012631*
Y012566*
X02874Y0125*
X028674*
X02874*
X028806Y012434*
Y012369*
X02874Y012303*
X028609*
X028543Y012369*
X025479Y014147D02*
X025413Y014212D01*
X025282*
X025217Y014147*
Y013884*
X025282Y013819*
X025413*
X025479Y013884*
X025872Y013819D02*
X02561D01*
X025872Y014081*
Y014147*
X025807Y014212*
X025676*
X02561Y014147*
X033333Y007644D02*
X033268Y007579D01*
Y007447*
X033333Y007382*
X033596*
X033661Y007447*
Y007579*
X033596Y007644*
X033661Y007775D02*
Y007907D01*
Y007841*
X033268*
X033333Y007775*
X007969Y015052D02*
X007903Y015118D01*
X007772*
X007707Y015052*
Y01479*
X007772Y014724*
X007903*
X007969Y01479*
X008363Y015118D02*
X008231Y015052D01*
X0081Y014921*
Y01479*
X008166Y014724*
X008297*
X008363Y01479*
Y014856*
X008297Y014921*
X0081*
X010302Y009777D02*
X010236Y009842D01*
X010105*
X010039Y009777*
Y009514*
X010105Y009449*
X010236*
X010302Y009514*
X010433Y009842D02*
Y009449D01*
X010695*
X010827Y009842D02*
Y009449D01*
Y00958*
X011089Y009842*
X010892Y009646*
X011089Y009449*
X010039Y010827D02*
Y010433D01*
X010236*
X010302Y010499*
Y010761*
X010236Y010827*
X010039*
X010433Y010433D02*
Y010695D01*
X010564Y010827*
X010695Y010695*
Y010433*
Y01063*
X010433*
X010827Y010827D02*
X011089D01*
X010958*
Y010433*
X010302Y011745D02*
X010236Y011811D01*
X010105*
X010039Y011745*
Y011483*
X010105Y011417*
X010236*
X010302Y011483*
Y011614*
X010171*
X010433Y011417D02*
Y011811D01*
X010695Y011417*
Y011811*
X010827D02*
Y011417D01*
X011023*
X011089Y011483*
Y011745*
X011023Y011811*
X010827*
X010039Y012795D02*
Y012533D01*
X010171Y012402*
X010302Y012533*
Y012795*
X010695Y01273D02*
X01063Y012795D01*
X010499*
X010433Y01273*
Y012467*
X010499Y012402*
X01063*
X010695Y012467*
X011089Y01273D02*
X011023Y012795D01*
X010892*
X010827Y01273*
Y012467*
X010892Y012402*
X011023*
X011089Y012467*
X009646Y013484D02*
Y013878D01*
X009777Y013747*
X009908Y013878*
Y013484*
X010302Y013812D02*
X010236Y013878D01*
X010105*
X010039Y013812*
Y01355*
X010105Y013484*
X010236*
X010302Y01355*
X010433Y013878D02*
Y013484D01*
X010695*
X010826D02*
Y013878D01*
X011023*
X011089Y013812*
Y013681*
X011023Y013615*
X010826*
X010958D02*
X011089Y013484D01*
X027992Y011004D02*
X028255D01*
X028123Y011135D02*
Y010873D01*
X034734Y001243D02*
X0348Y001309D01*
X034931*
X034997Y001243*
Y001178*
X034931Y001112*
X034865*
X034931*
X034997Y001047*
Y000981*
X034931Y000915*
X0348*
X034734Y000981*
X035128Y001243D02*
X035193Y001309D01*
X035325*
X03539Y001243*
Y000981*
X035325Y000915*
X035193*
X035128Y000981*
Y001243*
X035521Y001309D02*
Y001047D01*
X035653Y000915*
X035784Y001047*
Y001309*
X036309Y000915D02*
Y001309D01*
X03644Y001178*
X036571Y001309*
Y000915*
X036702D02*
Y001178D01*
X036833Y001309*
X036964Y001178*
Y000915*
Y001112*
X036702*
X037096Y001309D02*
X037358Y000915D01*
Y001309D02*
X037096Y000915D01*
G54D63*
X010443Y003307D02*
D01*
X01044Y00339*
X010431Y003472*
X010416Y003554*
X010396Y003635*
X010371Y003714*
X01034Y003791*
X010303Y003866*
X010262Y003938*
X010215Y004007*
X010164Y004072*
X010108Y004134*
X010048Y004192*
X009985Y004245*
X009917Y004294*
X009847Y004338*
X009774Y004377*
X009698Y004411*
X00962Y004439*
X00954Y004462*
X009458Y004479*
X009376Y004491*
X009293Y004497*
X00921*
X009127Y004491*
X009045Y004479*
X008963Y004462*
X008883Y004439*
X008805Y004411*
X008729Y004377*
X008656Y004338*
X008586Y004294*
X008518Y004245*
X008455Y004192*
X008395Y004134*
X008339Y004072*
X008288Y004007*
X008241Y003938*
X0082Y003866*
X008163Y003791*
X008132Y003714*
X008107Y003635*
X008087Y003554*
X008072Y003472*
X008063Y00339*
X008061Y003307*
X008063Y003223*
X008072Y003141*
X008087Y003059*
X008107Y002978*
X008132Y002899*
X008163Y002822*
X0082Y002747*
X008241Y002675*
X008288Y002606*
X008339Y002541*
X008395Y002479*
X008455Y002421*
X008518Y002368*
X008586Y002319*
X008656Y002275*
X008729Y002236*
X008805Y002202*
X008883Y002174*
X008963Y002151*
X009045Y002134*
X009127Y002122*
X00921Y002116*
X009293*
X009376Y002122*
X009458Y002134*
X00954Y002151*
X00962Y002174*
X009698Y002202*
X009774Y002236*
X009847Y002275*
X009917Y002319*
X009985Y002368*
X010048Y002421*
X010108Y002479*
X010164Y002541*
X010215Y002606*
X010262Y002675*
X010303Y002747*
X01034Y002822*
X010371Y002899*
X010396Y002978*
X010416Y003059*
X010431Y003141*
X01044Y003223*
X010443Y003307*
X038608Y010512D02*
D01*
X038601Y010684*
X038583Y010855*
X038554Y011024*
X038512Y011191*
X038459Y011355*
X038394Y011515*
X038319Y01167*
X038233Y011819*
X038136Y011962*
X03803Y012097*
X037915Y012225*
X037791Y012345*
X037659Y012456*
X03752Y012557*
X037374Y012648*
X037222Y012729*
X037065Y012799*
X036903Y012858*
X036737Y012905*
X036569Y012941*
X036398Y012965*
X036227Y012977*
X036054*
X035883Y012965*
X035712Y012941*
X035544Y012905*
X035378Y012858*
X035216Y012799*
X035059Y012729*
X034907Y012648*
X034761Y012557*
X034622Y012456*
X03449Y012345*
X034366Y012225*
X034251Y012097*
X034145Y011962*
X034048Y011819*
X033962Y01167*
X033887Y011515*
X033822Y011355*
X033769Y011191*
X033727Y011024*
X033698Y010855*
X03368Y010684*
X033674Y010512*
X03368Y010339*
X033698Y010168*
X033727Y009999*
X033769Y009832*
X033822Y009668*
X033887Y009508*
X033962Y009353*
X034048Y009204*
X034145Y009061*
X034251Y008926*
X034366Y008798*
X03449Y008678*
X034622Y008567*
X034761Y008466*
X034907Y008375*
X035059Y008294*
X035216Y008224*
X035378Y008165*
X035544Y008118*
X035712Y008082*
X035883Y008058*
X036054Y008046*
X036227*
X036398Y008058*
X036569Y008082*
X036737Y008118*
X036903Y008165*
X037065Y008224*
X037222Y008294*
X037374Y008375*
X03752Y008466*
X037659Y008567*
X037791Y008678*
X037915Y008798*
X03803Y008926*
X038136Y009061*
X038233Y009204*
X038319Y009353*
X038394Y009508*
X038459Y009668*
X038512Y009832*
X038554Y009999*
X038583Y010168*
X038601Y010339*
X038608Y010512*
X038589Y004134D02*
D01*
X038582Y004306*
X038564Y004477*
X038535Y004646*
X038493Y004813*
X03844Y004977*
X038375Y005137*
X0383Y005292*
X038214Y005441*
X038117Y005584*
X038011Y005719*
X037896Y005847*
X037772Y005967*
X03764Y006078*
X037501Y006179*
X037355Y00627*
X037203Y006351*
X037046Y006421*
X036884Y00648*
X036718Y006527*
X03655Y006563*
X036379Y006587*
X036208Y006599*
X036035*
X035864Y006587*
X035693Y006563*
X035525Y006527*
X035359Y00648*
X035197Y006421*
X03504Y006351*
X034888Y00627*
X034742Y006179*
X034603Y006078*
X034471Y005967*
X034347Y005847*
X034232Y005719*
X034126Y005584*
X034029Y005441*
X033943Y005292*
X033868Y005137*
X033803Y004977*
X03375Y004813*
X033708Y004646*
X033679Y004477*
X033661Y004306*
X033655Y004134*
X033661Y003961*
X033679Y00379*
X033708Y003621*
X03375Y003454*
X033803Y00329*
X033868Y00313*
X033943Y002975*
X034029Y002826*
X034126Y002683*
X034232Y002548*
X034347Y00242*
X034471Y0023*
X034603Y002189*
X034742Y002088*
X034888Y001997*
X03504Y001916*
X035197Y001846*
X035359Y001787*
X035525Y00174*
X035693Y001704*
X035864Y00168*
X036035Y001668*
X036208*
X036379Y00168*
X03655Y001704*
X036718Y00174*
X036884Y001787*
X037046Y001846*
X037203Y001916*
X037355Y001997*
X037501Y002088*
X03764Y002189*
X037772Y0023*
X037896Y00242*
X038011Y002548*
X038117Y002683*
X038214Y002826*
X0383Y002975*
X038375Y00313*
X03844Y00329*
X038493Y003454*
X038535Y003621*
X038564Y00379*
X038582Y003961*
X038589Y004134*
X005699Y018943D02*
Y018743D01*
Y018843*
X006199*
X006299Y018743*
Y018643*
X006199Y018543*
X006299Y019143D02*
Y019343D01*
Y019243*
X005699*
X005799Y019143*
X026239Y012022D02*
X025839D01*
Y011722*
X026039*
X025839*
Y011422*
X026438D02*
Y011822D01*
X026638Y012022*
X026838Y011822*
Y011422*
Y011722*
X026438*
X027038Y011422D02*
Y012022D01*
X027438Y011422*
Y012022*
G54D64*
X002904Y013569D02*
Y014069D01*
X004054Y013569D02*
X004154Y013669D01*
X004054Y014069D02*
X004154Y013969D01*
Y013669D02*
Y013969D01*
X003654Y014069D02*
X004054D01*
X002904D02*
X003354D01*
X003654Y013569D02*
X004054D01*
X002904D02*
X003354D01*
M02*