%FSTAX24Y24*%
%MOIN*%
%SFA1B1*%

%IPPOS*%
%ADD16R,0.074800X0.074800*%
%ADD38C,0.003900*%
%ADD85O,0.070900X0.157500*%
%ADD86O,0.157500X0.070900*%
%ADD87C,0.039400*%
%ADD88C,0.074800*%
%ADD89C,0.078700*%
%ADD90R,0.078700X0.078700*%
%ADD91O,0.055100X0.094500*%
%ADD92R,0.055100X0.094500*%
%ADD93C,0.063000*%
%ADD94C,0.094500*%
%ADD95R,0.157500X0.157500*%
%ADD96O,0.057100X0.094500*%
%ADD97R,0.057100X0.094500*%
%ADD98C,0.141700*%
%ADD99C,0.133900*%
%ADD100C,0.488200*%
%ADD101R,0.074800X0.074800*%
%LNdummyv1-1*%
%LPD*%
G36*
X039055Y014803D02*
Y01315D01*
X038189*
X037392Y013947*
Y015394*
X03747Y015472*
X038386*
X039055Y014803*
G37*
G36*
X038819Y016378D02*
X03874Y016299D01*
X037638*
X03752Y016417*
X037205*
X036417Y017205*
X037205Y017992*
X038819*
Y016378*
G37*
G54D16*
X011772Y013622D03*
G54D38*
X0Y0D02*
Y019685D01*
X03937*
Y0D02*
Y019685D01*
X0Y0D02*
X03937D01*
G54D85*
X002825Y017667D03*
X005108D03*
G54D86*
X003927Y015778D03*
G54D87*
X00206Y011088D03*
Y009355D03*
G54D88*
X011772Y009622D03*
Y010622D03*
Y011622D03*
Y012622D03*
X026274Y010581D03*
G54D89*
X035764Y018543D03*
X034764D03*
G54D90*
X033764Y018543D03*
G54D91*
X030878Y019016D03*
X031378D03*
G54D92*
X031878Y019016D03*
G54D93*
X014567Y001575D03*
X015567D03*
X016567D03*
X017567D03*
X018567D03*
Y005575D03*
X017567D03*
X016567D03*
X015567D03*
X014567D03*
X019567D03*
G54D94*
X002559Y000787D03*
X004528D03*
X003543D03*
X004528Y006496D03*
X002559D03*
G54D95*
X005354Y00374D03*
X001732D03*
G54D96*
X010002Y003317D03*
X009502D03*
X008502D03*
G54D97*
X009002Y003317D03*
G54D98*
X037303Y006283D03*
Y008283D03*
G54D99*
X010709Y01878D03*
X01Y000906D03*
X038465Y01878D03*
Y000906D03*
G54D100*
X036142Y010512D03*
X036122Y004134D03*
G54D101*
X027274Y010581D03*
M02*